<?xml version="1.0" encoding="utf-8"?>
<!-- Generator: Adobe Illustrator 14.0.0, SVG Export Plug-In . SVG Version: 6.00 Build 43363)  -->
<!DOCTYPE svg PUBLIC "-//W3C//DTD SVG 1.1//EN" "http://www.w3.org/Graphics/SVG/1.1/DTD/svg11.dtd">
<svg version="1.1" id="Layer_1" xmlns="http://www.w3.org/2000/svg" xmlns:xlink="http://www.w3.org/1999/xlink" x="0px" y="0px"
	 viewBox="0 0 1175 325" enable-background="new 0 0 1175 325" xml:space="preserve">
<g>
	<g>
		<defs>
			<path id="SVGID_1_" d="M13.18,186.587l46.017-26.218l25.36,17.759c0,0,14.848-6.719,17.971-8.687l18.351,19.324
				c0,0,39.808,31.57,40.99,31.57c1.165,0,35.137-19.73,35.137-19.73l30.453-20.916l26.556,19.332l19.902,3.951l20.304,13.807
				c0,0,49.191-32.742,57.006-36.688c0,0,21.47,7.887,23.423,7.5c1.938-0.396,35.521-26.437,35.521-26.437l28.408,20.539
				C416.054,85.371,329.609,13.631,226.417,13.631C121.484,13.631,33.879,87.81,13.18,186.587"/>
		</defs>
		<clipPath id="SVGID_2_">
			<use xlink:href="#SVGID_1_"  overflow="visible"/>
		</clipPath>

			<radialGradient id="SVGID_3_" cx="263.7666" cy="-224.9697" r="7.5767" gradientTransform="matrix(28.0628 0 0 28.0628 -7176.145 6532.8735)" gradientUnits="userSpaceOnUse">
			<stop  offset="0" style="stop-color:#FFFFFF"/>
			<stop  offset="0.1197" style="stop-color:#FFFDF9"/>
			<stop  offset="0.2246" style="stop-color:#FFF8EE"/>
			<stop  offset="0.3241" style="stop-color:#FFF3DE"/>
			<stop  offset="0.4201" style="stop-color:#FFECC9"/>
			<stop  offset="0.5129" style="stop-color:#FFE3AE"/>
			<stop  offset="0.6" style="stop-color:#FFD990"/>
			<stop  offset="0.6209" style="stop-color:#FFD482"/>
			<stop  offset="0.6672" style="stop-color:#FFCB66"/>
			<stop  offset="0.7169" style="stop-color:#FEC44B"/>
			<stop  offset="0.7703" style="stop-color:#FEBF34"/>
			<stop  offset="0.8292" style="stop-color:#FEBB22"/>
			<stop  offset="0.898" style="stop-color:#FDB917"/>
			<stop  offset="1" style="stop-color:#FDB913"/>
		</radialGradient>
		<rect x="13.18" y="13.631" clip-path="url(#SVGID_2_)" fill="url(#SVGID_3_)" width="425.399" height="206.706"/>
	</g>
</g>
<g>
	<g>
		<defs>
			<path id="SVGID_4_" d="M8.542,232.139c0-0.113,0-0.221,0-0.326V232.139z M8.542,231.813v-0.301
				C8.542,231.605,8.542,231.709,8.542,231.813"/>
		</defs>
		<clipPath id="SVGID_5_">
			<use xlink:href="#SVGID_4_"  overflow="visible"/>
		</clipPath>

			<radialGradient id="SVGID_6_" cx="8.542" cy="236.6738" r="0.0052" gradientTransform="matrix(6.000000e-004 0 0 6.000000e-004 694.8632 -18.3096)" gradientUnits="userSpaceOnUse">
			<stop  offset="0" style="stop-color:#FFFFFF"/>
			<stop  offset="0.1233" style="stop-color:#FFFDF9"/>
			<stop  offset="0.2313" style="stop-color:#FFF8EE"/>
			<stop  offset="0.3338" style="stop-color:#FFF3DE"/>
			<stop  offset="0.4327" style="stop-color:#FFECC9"/>
			<stop  offset="0.5282" style="stop-color:#FFE3AE"/>
			<stop  offset="0.618" style="stop-color:#FFD990"/>
			<stop  offset="0.6379" style="stop-color:#FFD482"/>
			<stop  offset="0.6821" style="stop-color:#FFCB66"/>
			<stop  offset="0.7296" style="stop-color:#FEC44B"/>
			<stop  offset="0.7806" style="stop-color:#FEBF34"/>
			<stop  offset="0.8369" style="stop-color:#FEBB22"/>
			<stop  offset="0.9026" style="stop-color:#FDB917"/>
			<stop  offset="1" style="stop-color:#FDB913"/>
		</radialGradient>
		<polygon clip-path="url(#SVGID_5_)" fill="url(#SVGID_6_)" points="8.542,231.512 8.542,231.512 8.542,232.139 		"/>
	</g>
</g>
<g>
	<g>
		<defs>
			<path id="SVGID_7_" d="M27.636,142.205c0.072-0.21,0.175-0.418,0.266-0.622C27.811,141.787,27.708,141.995,27.636,142.205"/>
		</defs>
		<clipPath id="SVGID_8_">
			<use xlink:href="#SVGID_7_"  overflow="visible"/>
		</clipPath>

			<radialGradient id="SVGID_9_" cx="268.3311" cy="-227.4014" r="6.3278" gradientTransform="matrix(41.096 0 0 41.096 -10845.2607 9577.4775)" gradientUnits="userSpaceOnUse">
			<stop  offset="0" style="stop-color:#FFFFFF"/>
			<stop  offset="0.53" style="stop-color:#FFFFFF"/>
			<stop  offset="0.5924" style="stop-color:#FFF6E7"/>
			<stop  offset="0.7219" style="stop-color:#FFE6B7"/>
			<stop  offset="0.77" style="stop-color:#FFDFA4"/>
			<stop  offset="0.7982" style="stop-color:#FFDA95"/>
			<stop  offset="0.8549" style="stop-color:#FFCE6F"/>
			<stop  offset="0.88" style="stop-color:#FFC85A"/>
			<stop  offset="0.9055" style="stop-color:#FFC54E"/>
			<stop  offset="0.964" style="stop-color:#FEBF34"/>
			<stop  offset="1" style="stop-color:#FEBD2A"/>
		</radialGradient>
		<rect x="27.636" y="141.583" clip-path="url(#SVGID_8_)" fill="url(#SVGID_9_)" width="0.266" height="0.622"/>
	</g>
</g>
<g>
	<g>
		<defs>
			<path id="SVGID_10_" d="M29.971,137.158c0.051-0.124,0.119-0.228,0.172-0.34C30.09,136.93,30.022,137.034,29.971,137.158"/>
		</defs>
		<clipPath id="SVGID_11_">
			<use xlink:href="#SVGID_10_"  overflow="visible"/>
		</clipPath>

			<radialGradient id="SVGID_12_" cx="270.4858" cy="-227.5869" r="7.9998" gradientTransform="matrix(43.4097 0 0 43.4097 -11495.2773 10118.2188)" gradientUnits="userSpaceOnUse">
			<stop  offset="0" style="stop-color:#FFFFFF"/>
			<stop  offset="0.53" style="stop-color:#FFFFFF"/>
			<stop  offset="0.5924" style="stop-color:#FFF6E7"/>
			<stop  offset="0.7219" style="stop-color:#FFE6B7"/>
			<stop  offset="0.77" style="stop-color:#FFDFA4"/>
			<stop  offset="0.7982" style="stop-color:#FFDA95"/>
			<stop  offset="0.8549" style="stop-color:#FFCE6F"/>
			<stop  offset="0.88" style="stop-color:#FFC85A"/>
			<stop  offset="0.9055" style="stop-color:#FFC54E"/>
			<stop  offset="0.964" style="stop-color:#FEBF34"/>
			<stop  offset="1" style="stop-color:#FEBD2A"/>
		</radialGradient>
		<rect x="29.971" y="136.818" clip-path="url(#SVGID_11_)" fill="url(#SVGID_12_)" width="0.172" height="0.34"/>
	</g>
</g>
<g>
	<g>
		<defs>
			<path id="SVGID_13_" d="M27.902,141.583c0.683-1.48,1.377-2.959,2.069-4.426C29.28,138.624,28.585,140.104,27.902,141.583"/>
		</defs>
		<clipPath id="SVGID_14_">
			<use xlink:href="#SVGID_13_"  overflow="visible"/>
		</clipPath>

			<radialGradient id="SVGID_15_" cx="271.5571" cy="-240.4258" r="8.0506" gradientTransform="matrix(17.6187 -39.577 43.277 19.2674 5869.9438 15621.6416)" gradientUnits="userSpaceOnUse">
			<stop  offset="0" style="stop-color:#FFFFFF"/>
			<stop  offset="0.53" style="stop-color:#FFFFFF"/>
			<stop  offset="0.5924" style="stop-color:#FFF6E7"/>
			<stop  offset="0.7219" style="stop-color:#FFE6B7"/>
			<stop  offset="0.77" style="stop-color:#FFDFA4"/>
			<stop  offset="0.7982" style="stop-color:#FFDA95"/>
			<stop  offset="0.8549" style="stop-color:#FFCE6F"/>
			<stop  offset="0.88" style="stop-color:#FFC85A"/>
			<stop  offset="0.9055" style="stop-color:#FFC54E"/>
			<stop  offset="0.964" style="stop-color:#FEBF34"/>
			<stop  offset="1" style="stop-color:#FEBD2A"/>
		</radialGradient>
		<polygon clip-path="url(#SVGID_14_)" fill="url(#SVGID_15_)" points="26.255,140.85 28.241,136.391 31.613,137.892
			29.628,142.359 		"/>
	</g>
</g>
<g>
	<g>
		<defs>
			<path id="SVGID_16_" d="M215.886,13.892l5.171,106.356c2.471-0.168,4.957-0.254,7.464-0.254c2.091,0,4.305,0.05,6.359,0.155
				l7.765-105.92c-5.359-0.395-10.775-0.597-16.229-0.597C222.891,13.631,219.365,13.72,215.886,13.892"/>
		</defs>
		<clipPath id="SVGID_17_">
			<use xlink:href="#SVGID_16_"  overflow="visible"/>
		</clipPath>

			<radialGradient id="SVGID_18_" cx="262.5933" cy="-224.8223" r="7.5731" gradientTransform="matrix(26.2982 0 0 28.7569 -6679.2012 6696.3599)" gradientUnits="userSpaceOnUse">
			<stop  offset="0" style="stop-color:#FFFFFF"/>
			<stop  offset="0.53" style="stop-color:#FFFFFF"/>
			<stop  offset="0.5924" style="stop-color:#FFF6E7"/>
			<stop  offset="0.7219" style="stop-color:#FFE6B7"/>
			<stop  offset="0.77" style="stop-color:#FFDFA4"/>
			<stop  offset="0.7982" style="stop-color:#FFDA95"/>
			<stop  offset="0.8549" style="stop-color:#FFCE6F"/>
			<stop  offset="0.88" style="stop-color:#FFC85A"/>
			<stop  offset="0.9055" style="stop-color:#FFC54E"/>
			<stop  offset="0.964" style="stop-color:#FEBF34"/>
			<stop  offset="1" style="stop-color:#FEBD2A"/>
		</radialGradient>
		<rect x="215.886" y="13.631" clip-path="url(#SVGID_17_)" fill="url(#SVGID_18_)" width="26.759" height="106.617"/>
	</g>
</g>
<g>
	<g>
		<defs>
			<path id="SVGID_19_" d="M134.818,33.778l45,97.432c4.038-1.967,8.259-3.699,12.564-5.167L159.654,24.067
				C151.127,26.799,142.848,30.054,134.818,33.778"/>
		</defs>
		<clipPath id="SVGID_20_">
			<use xlink:href="#SVGID_19_"  overflow="visible"/>
		</clipPath>

			<radialGradient id="SVGID_21_" cx="260.4321" cy="-231.9478" r="7.5699" gradientTransform="matrix(24.4167 -9.8657 10.7872 26.7002 -3630.4194 8993.7578)" gradientUnits="userSpaceOnUse">
			<stop  offset="0" style="stop-color:#FFFFFF"/>
			<stop  offset="0.53" style="stop-color:#FFFFFF"/>
			<stop  offset="0.5924" style="stop-color:#FFF6E7"/>
			<stop  offset="0.7219" style="stop-color:#FFE6B7"/>
			<stop  offset="0.77" style="stop-color:#FFDFA4"/>
			<stop  offset="0.7982" style="stop-color:#FFDA95"/>
			<stop  offset="0.8549" style="stop-color:#FFCE6F"/>
			<stop  offset="0.88" style="stop-color:#FFC85A"/>
			<stop  offset="0.9055" style="stop-color:#FFC54E"/>
			<stop  offset="0.964" style="stop-color:#FEBF34"/>
			<stop  offset="1" style="stop-color:#FEBD2A"/>
		</radialGradient>
		<polygon clip-path="url(#SVGID_20_)" fill="url(#SVGID_21_)" points="97.604,39.099 184.302,4.071 229.594,116.178
			142.898,151.204 		"/>
	</g>
</g>
<g>
	<g>
		<defs>
			<path id="SVGID_22_" d="M67.693,82.27l78.733,74.041c3.04-3.341,6.417-6.607,9.824-9.551L87.2,63.905
				C80.328,69.615,73.824,75.748,67.693,82.27"/>
		</defs>
		<clipPath id="SVGID_23_">
			<use xlink:href="#SVGID_22_"  overflow="visible"/>
		</clipPath>

			<radialGradient id="SVGID_24_" cx="261.3359" cy="-239.2324" r="7.5832" gradientTransform="matrix(18.9454 -18.2945 20.0082 20.7167 62.0651 9968.6855)" gradientUnits="userSpaceOnUse">
			<stop  offset="0" style="stop-color:#FFFFFF"/>
			<stop  offset="0.53" style="stop-color:#FFFFFF"/>
			<stop  offset="0.5924" style="stop-color:#FFF6E7"/>
			<stop  offset="0.7219" style="stop-color:#FFE6B7"/>
			<stop  offset="0.77" style="stop-color:#FFDFA4"/>
			<stop  offset="0.7982" style="stop-color:#FFDA95"/>
			<stop  offset="0.8549" style="stop-color:#FFCE6F"/>
			<stop  offset="0.88" style="stop-color:#FFC85A"/>
			<stop  offset="0.9055" style="stop-color:#FFC54E"/>
			<stop  offset="0.964" style="stop-color:#FEBF34"/>
			<stop  offset="1" style="stop-color:#FEBD2A"/>
		</radialGradient>
		<polygon clip-path="url(#SVGID_23_)" fill="url(#SVGID_24_)" points="21.516,108.497 113.517,19.653 202.426,111.717
			110.429,200.553 		"/>
	</g>
</g>
<g>
	<g>
		<defs>
			<path id="SVGID_25_" d="M23.694,151.518l101.429,39.332c1.599-4.195,3.434-8.369,5.507-12.316l-95.605-51.224
				C31.396,133.827,26.149,144.958,23.694,151.518"/>
		</defs>
		<clipPath id="SVGID_26_">
			<use xlink:href="#SVGID_25_"  overflow="visible"/>
		</clipPath>

			<radialGradient id="SVGID_27_" cx="264.23" cy="-224.8159" r="7.5845" gradientTransform="matrix(28.7772 0 0 28.7772 -7377.2285 6701.2065)" gradientUnits="userSpaceOnUse">
			<stop  offset="0" style="stop-color:#FFFFFF"/>
			<stop  offset="0.53" style="stop-color:#FFFFFF"/>
			<stop  offset="0.5924" style="stop-color:#FFF6E7"/>
			<stop  offset="0.7219" style="stop-color:#FFE6B7"/>
			<stop  offset="0.77" style="stop-color:#FFDFA4"/>
			<stop  offset="0.7982" style="stop-color:#FFDA95"/>
			<stop  offset="0.8549" style="stop-color:#FFCE6F"/>
			<stop  offset="0.88" style="stop-color:#FFC85A"/>
			<stop  offset="0.9055" style="stop-color:#FFC54E"/>
			<stop  offset="0.964" style="stop-color:#FEBF34"/>
			<stop  offset="1" style="stop-color:#FEBD2A"/>
		</radialGradient>
		<rect x="23.694" y="127.309" clip-path="url(#SVGID_26_)" fill="url(#SVGID_27_)" width="106.937" height="63.541"/>
	</g>
</g>
<g>
	<g>
		<defs>
			<path id="SVGID_28_" d="M263.4,125.584c4.407,1.465,8.827,3.277,12.957,5.25l46.554-94.709
				c-7.969-3.939-16.223-7.415-24.71-10.375L263.4,125.584z"/>
		</defs>
		<clipPath id="SVGID_29_">
			<use xlink:href="#SVGID_28_"  overflow="visible"/>
		</clipPath>

			<radialGradient id="SVGID_30_" cx="267.5513" cy="-218.9834" r="7.5822" gradientTransform="matrix(24.3965 9.8576 -10.7783 26.6782 -8660.9824 3436.2705)" gradientUnits="userSpaceOnUse">
			<stop  offset="0" style="stop-color:#FFFFFF"/>
			<stop  offset="0.53" style="stop-color:#FFFFFF"/>
			<stop  offset="0.5924" style="stop-color:#FFF6E7"/>
			<stop  offset="0.7219" style="stop-color:#FFE6B7"/>
			<stop  offset="0.77" style="stop-color:#FFDFA4"/>
			<stop  offset="0.7982" style="stop-color:#FFDA95"/>
			<stop  offset="0.8549" style="stop-color:#FFCE6F"/>
			<stop  offset="0.88" style="stop-color:#FFC85A"/>
			<stop  offset="0.9055" style="stop-color:#FFC54E"/>
			<stop  offset="0.964" style="stop-color:#FEBF34"/>
			<stop  offset="1" style="stop-color:#FEBD2A"/>
		</radialGradient>
		<polygon clip-path="url(#SVGID_29_)" fill="url(#SVGID_30_)" points="271.752,5.08 359.409,40.496 314.56,151.505 226.903,116.09
					"/>
	</g>
</g>
<g>
	<g>
		<defs>
			<path id="SVGID_31_" d="M299.956,146.01c3.491,2.966,6.803,6.174,9.894,9.552l78.327-70.01
				c-5.932-6.563-12.239-12.775-18.935-18.585L299.956,146.01z"/>
		</defs>
		<clipPath id="SVGID_32_">
			<use xlink:href="#SVGID_31_"  overflow="visible"/>
		</clipPath>

			<radialGradient id="SVGID_33_" cx="274.4731" cy="-215.1978" r="7.583" gradientTransform="matrix(18.8854 18.2365 -19.9448 20.651 -9249.1348 -329.9092)" gradientUnits="userSpaceOnUse">
			<stop  offset="0" style="stop-color:#FFFFFF"/>
			<stop  offset="0.53" style="stop-color:#FFFFFF"/>
			<stop  offset="0.5924" style="stop-color:#FFF6E7"/>
			<stop  offset="0.7219" style="stop-color:#FFE6B7"/>
			<stop  offset="0.77" style="stop-color:#FFDFA4"/>
			<stop  offset="0.7982" style="stop-color:#FFDA95"/>
			<stop  offset="0.8549" style="stop-color:#FFCE6F"/>
			<stop  offset="0.88" style="stop-color:#FFC85A"/>
			<stop  offset="0.9055" style="stop-color:#FFC54E"/>
			<stop  offset="0.964" style="stop-color:#FEBF34"/>
			<stop  offset="1" style="stop-color:#FEBD2A"/>
		</radialGradient>
		<polygon clip-path="url(#SVGID_32_)" fill="url(#SVGID_33_)" points="342.53,22.889 432.451,109.723 345.601,199.641
			255.684,112.812 		"/>
	</g>
</g>
<g>
	<g>
		<defs>
			<path id="SVGID_34_" d="M326.606,179.037c2.113,4.045,3.985,8.131,5.591,12.445l98.656-35.461
				c-3.076-8.327-6.634-16.405-10.652-24.204L326.606,179.037z"/>
		</defs>
		<clipPath id="SVGID_35_">
			<use xlink:href="#SVGID_34_"  overflow="visible"/>
		</clipPath>

			<radialGradient id="SVGID_36_" cx="282.5029" cy="-214.1138" r="7.5864" gradientTransform="matrix(10.6625 23.9513 -26.1905 11.6603 -8393.6953 -4038.2354)" gradientUnits="userSpaceOnUse">
			<stop  offset="0" style="stop-color:#FFFFFF"/>
			<stop  offset="0.53" style="stop-color:#FFFFFF"/>
			<stop  offset="0.5924" style="stop-color:#FFF6E7"/>
			<stop  offset="0.7219" style="stop-color:#FFE6B7"/>
			<stop  offset="0.77" style="stop-color:#FFDFA4"/>
			<stop  offset="0.7982" style="stop-color:#FFDA95"/>
			<stop  offset="0.8549" style="stop-color:#FFCE6F"/>
			<stop  offset="0.88" style="stop-color:#FFC85A"/>
			<stop  offset="0.9055" style="stop-color:#FFC54E"/>
			<stop  offset="0.964" style="stop-color:#FEBF34"/>
			<stop  offset="1" style="stop-color:#FEBD2A"/>
		</radialGradient>
		<polygon clip-path="url(#SVGID_35_)" fill="url(#SVGID_36_)" points="413.615,93.082 453.025,181.615 343.853,230.218
			304.437,141.687 		"/>
	</g>
</g>
<g>
	<g>
		<defs>
			<path id="SVGID_37_" d="M246.16,120.257c-5.746-0.919-11.628-1.391-17.638-1.391c-6.394,0-12.656,0.549-18.754,1.578
				l-21.001-89.616L202,122.039c-11.375,2.759-22.072,7.241-31.787,13.178l-53.025-75.186l46.411,79.553
				c-9.325,6.641-17.561,14.654-24.456,23.76L60.24,112.479l74.252,57.49c-4.265,6.59-7.875,13.652-10.709,21.104
				c9.168,7.237,37.108,29.265,38.086,29.265c1.165,0,35.137-19.73,35.137-19.73l30.453-20.916l26.556,19.332l19.902,3.951
				l20.304,13.808c0,0,22.13-14.729,39.075-25.63c-2.928-7.695-6.675-14.998-11.128-21.772l73.497-56.899l-78.149,50.367
				c-7.013-9.148-15.412-17.2-24.894-23.829l46.083-78.986l-52.685,74.705c-9.817-5.884-20.609-10.309-32.091-12.979l13.186-90.928
				L246.16,120.257z"/>
		</defs>
		<clipPath id="SVGID_38_">
			<use xlink:href="#SVGID_37_"  overflow="visible"/>
		</clipPath>

			<radialGradient id="SVGID_39_" cx="264.1919" cy="-224.8047" r="7.5812" gradientTransform="matrix(28.7609 0 0 28.7609 -7372.3315 6696.9888)" gradientUnits="userSpaceOnUse">
			<stop  offset="0" style="stop-color:#FFFFFF"/>
			<stop  offset="0.72" style="stop-color:#FFFFFF"/>
			<stop  offset="0.8021" style="stop-color:#FFF7EA"/>
			<stop  offset="0.9668" style="stop-color:#FFE9C2"/>
			<stop  offset="1" style="stop-color:#FFE6B9"/>
		</radialGradient>
		<rect x="60.24" y="30.829" clip-path="url(#SVGID_38_)" fill="url(#SVGID_39_)" width="335.424" height="189.508"/>
	</g>
</g>
<g>
	<g>
		<defs>
			<rect id="SVGID_40_" x="-1673" y="-2486.96" width="4638.652" height="6002.96"/>
		</defs>
		<clipPath id="SVGID_41_">
			<use xlink:href="#SVGID_40_"  overflow="visible"/>
		</clipPath>
		<path clip-path="url(#SVGID_41_)" fill="#65799e" d="M438.205,180.234l-28.032-20.285c0,0-33.582,26.033-35.532,26.429
			c-1.938,0.397-23.413-7.498-23.413-7.498c-7.823,3.944-57.013,36.696-57.013,36.696l-20.299-13.814l-19.91-3.938l-26.545-19.337
			l-30.453,20.906c0,0-33.979,19.726-35.146,19.726c-1.175,0-40.983-31.56-40.983-31.56l-18.355-19.334
			c-3.125,1.979-17.968,8.689-17.968,8.689l-25.363-17.755l-45.708,26.036c-3.228,14.932-4.94,30.406-4.94,46.315
			c0,13.916,1.316,27.535,3.812,40.734c19.143-3.479,54.057-8.438,82.94-4.8c42.167,5.334,68.527,12.437,113.027,22.507
			c44.498,10.051,77.305,19.521,125.322,14.198c44.952-4.994,77.587-14.125,107.504-35.666c2.055-12.03,3.145-24.375,3.145-36.975
			C444.296,213.848,442.182,196.67,438.205,180.234"/>
	</g>
</g>
<g>
	<g>
		<defs>
			<rect id="SVGID_42_" x="-1476.234" y="-3346.95" width="5624.941" height="7279.338"/>
		</defs>
		<clipPath id="SVGID_43_">
			<use xlink:href="#SVGID_42_"  overflow="visible"/>
		</clipPath>
		<path display="none" clip-path="url(#SVGID_43_)" fill="#65799e" d="M1364.938,69.175c-1.81-1.831-1.503-6.085,0.931-7.297
			c8.19,0.604,21.881,0.91,31.313,0.91c8.521,0,24.021-0.306,34.663-0.91c2.738,0.91,2.445,5.175,0.613,7.297l-6.98,0.606
			c-6.401,0.605-10.055,2.436-10.055,5.165c0,3.658,6.387,19.162,15.813,40.755c17.03,38.011,34.976,76.02,52.627,113.424
			c7.282-15.2,15.485-32.221,23.405-49.254c2.737-5.78,4.862-10.944,4.862-12.471c0-1.519-0.915-4.256-2.432-7.903
			c-10.646-24.33-21.907-48.656-33.452-72.985c-4.557-9.434-9.128-15.811-19.47-16.73l-7.296-0.606
			c-2.117-2.437-1.822-6.085,0.619-7.297c8.826,0.604,20.365,0.91,32.539,0.91c15.214,0,26.452-0.306,33.439-0.91
			c2.148,0.91,2.438,4.86,0.613,7.297l-7.909,0.606c-11.854,0.92-12.159,3.041-6.381,16.73
			c6.381,14.896,14.897,34.057,23.416,52.911c5.78-11.856,11.246-23.417,17.934-39.833c10.943-25.856,9.433-29.203-0.293-29.809
			l-9.127-0.606c-2.132-3.044-1.509-6.387,0.606-7.297c8.225,0.604,17.344,0.91,28.59,0.91c10.035,0,22.192-0.306,29.188-0.91
			c2.133,0.91,2.447,4.86,0.616,7.297l-8.821,0.606c-12.779,0.92-18.245,14.593-24.934,27.069
			c-6.395,11.247-19.153,37.709-23.717,48.353c-1.529,3.042-2.733,6.076-2.733,7.298c0,1.211,0.589,3.639,2.104,7.297
			c10.343,23.421,21,46.226,31.033,69.327c9.434-21.285,18.547-42.57,27.366-64.162c6.094-14.603,22.203-55.034,24.32-60.515
			c3.961-10.944,9.12-24.022,9.12-27.671c0-4.269-3.645-6.691-10.023-6.996l-8.816-0.606c-2.441-2.736-2.133-6.085,0.307-7.297
			c11.56,0.604,19.755,0.91,29.197,0.91c11.542,0,20.367-0.306,28.274-0.91c2.432,0.91,2.737,4.86,0.593,7.297l-5.765,0.606
			c-15.216,1.525-17.953,10.645-36.181,52.912l-22.209,51.397c-13.38,31.021-25.548,60.814-38.016,93.36
			c-0.907,0.602-2.119,0.909-3.634,0.909c-1.535,0-3.056-0.309-4.269-0.909c-9.734-27.066-27.373-65.079-36.8-86.368
			c-10.951,22.198-29.204,61.125-38.019,86.368c-0.908,0.602-2.122,0.909-3.641,0.909c-1.531,0-3.046-0.309-4.556-0.909
			c-5.191-12.772-17.047-40.144-21.008-48.957c-19.453-42.271-38.31-84.55-58.078-126.813c-5.779-12.471-9.414-20.689-22.188-21.899
			L1364.938,69.175z"/>
	</g>
	<g>
		<defs>
			<rect id="SVGID_44_" x="-1476.234" y="-3346.95" width="5624.941" height="7279.338"/>
		</defs>
		<clipPath id="SVGID_45_">
			<use xlink:href="#SVGID_44_"  overflow="visible"/>
		</clipPath>
		<path display="none" clip-path="url(#SVGID_45_)" fill="#65799e" d="M1748.314,202.366c0,38.016-26.144,65.387-64.15,65.387
			c-34.984,0-62.256-24.636-62.256-62.646c0-38.321,28.789-65.685,64.674-65.685
			C1720.646,139.423,1748.314,164.969,1748.314,202.366 M1682.934,148.543c-20.069,0-34.97,19.155-34.97,52.619
			c0,27.672,12.481,57.471,39.239,57.471s34.969-27.977,34.969-51.394C1722.172,181.384,1711.832,148.543,1682.934,148.543"/>
	</g>
	<g>
		<defs>
			<rect id="SVGID_46_" x="-1476.234" y="-3346.95" width="5624.941" height="7279.338"/>
		</defs>
		<clipPath id="SVGID_47_">
			<use xlink:href="#SVGID_46_"  overflow="visible"/>
		</clipPath>
		<path display="none" clip-path="url(#SVGID_47_)" fill="#65799e" d="M1776.899,176.219c0-11.854,0-13.383-8.214-18.85
			l-2.739-1.831c-1.209-1.212-1.209-4.568,0.308-5.469c7.001-2.435,23.103-10.341,30.714-14.905c1.517,0.3,2.424,0.915,2.424,2.131
			v17.638c0,1.527,0.303,2.437,0.923,2.737c10.638-8.823,22.196-18.243,33.444-18.243c7.612,0,13.697,4.86,13.697,12.159
			c0,10.038-8.229,13.986-13.08,13.986c-3.04,0-4.558-0.904-6.695-2.131c-4.558-3.043-9.126-4.86-13.391-4.86
			c-4.856,0-8.51,2.737-10.937,6.087c-3.039,4.253-3.963,13.066-3.963,23.406v41.359c0,21.901,0.627,25.551,12.167,26.461
			l10.952,0.912c2.117,1.526,1.529,6.69-0.606,7.604c-14.282-0.611-23.106-0.912-33.742-0.912c-10.97,0-20.099,0.301-27.985,0.912
			c-2.139-0.912-2.738-6.076-0.622-7.604l5.784-0.912c11.252-1.826,11.563-4.56,11.563-26.461L1776.899,176.219L1776.899,176.219z"
			/>
	</g>
	<g>
		<defs>
			<rect id="SVGID_48_" x="-1476.234" y="-3346.95" width="5624.941" height="7279.338"/>
		</defs>
		<clipPath id="SVGID_49_">
			<use xlink:href="#SVGID_48_"  overflow="visible"/>
		</clipPath>
		<path display="none" clip-path="url(#SVGID_49_)" fill="#65799e" d="M1866.906,91.98c0-17.94-0.295-19.768-9.428-25.248
			l-3.033-1.817c-1.524-0.91-1.524-5.165,0-6.084c7.597-2.427,21.887-6.998,32.844-12.776c1.21,0,2.427,0.614,3.041,1.839
			c-0.314,9.114-0.922,24.319-0.922,37.702v104.306c0,3.953,0.308,4.562,5.473,4.562c6.688,0,12.473-3.344,20.682-11.858
			l12.47-13.383c8.504-9.124,10.651-12.472,10.651-13.988c0-1.525-1.524-2.423-6.701-3.039l-7.297-0.909
			c-2.74-0.921-2.74-6.69,0-7.603h6.995c13.374,0,31.327-0.606,48.354-2.438c2.127,0.911,2.434,6.086,0.611,7.603l-9.742,1.831
			c-6.073,1.211-11.244,4.255-19.154,10.641c-11.865,9.43-22.195,20.38-27.66,25.546c-3.668,3.342-3.969,4.857-2.145,7.298
			c5.177,6.991,10.035,12.771,20.375,24.328c11.866,13.383,22.511,25.239,28.584,31.021c4.256,3.948,10.34,5.771,15.814,6.689
			l4.255,0.607c2.131,1.525,1.824,6.689-0.588,7.603c-8.817-0.61-19.167-0.912-28.901-0.912c-12.166,0-22.803,0.302-31.623,0.912
			c-2.443-1.218-2.74-6.384-0.623-7.603l5.48-0.912c4.557-0.615,7.602-1.221,7.602-3.043c0-1.816-1.216-3.949-5.162-8.51
			l-32.537-37.711c-2.729-3.044-6.096-4.264-9.435-4.264c-5.472,0-5.778,0.915-5.778,10.339v16.728
			c0,21.9,0.606,24.935,11.551,26.461l7.303,0.912c2.125,1.525,1.518,6.689-0.596,7.603c-10.035-0.61-18.853-0.912-29.504-0.912
			c-10.949,0-20.069,0.302-29.189,0.912c-2.136-0.912-2.746-6.076-0.307-7.603l6.688-0.912c11.258-1.526,11.553-4.561,11.553-26.461
			V91.98L1866.906,91.98z"/>
	</g>
	<g>
		<defs>
			<rect id="SVGID_50_" x="-1476.234" y="-3346.95" width="5624.941" height="7279.338"/>
		</defs>
		<clipPath id="SVGID_51_">
			<use xlink:href="#SVGID_50_"  overflow="visible"/>
		</clipPath>
		<path display="none" clip-path="url(#SVGID_51_)" fill="#FDB913" d="M2019.563,102.326c0-22.505-1.209-28.278-14.898-29.504
			l-9.729-0.905c-2.424-1.831-2.138-6.391,0.313-7.604c16.416-1.525,37.094-2.446,65.375-2.446c19.153,0,37.402,1.528,51.082,8.523
			c13.077,6.387,23.11,18.543,23.11,38.011c0,21.893-12.772,33.145-31.006,41.668c0,3.032,2.431,3.949,5.76,4.553
			c16.434,3.043,40.762,18.258,40.762,50.794c0,35.275-26.143,58.997-80.881,58.997c-8.827,0-23.727-0.911-36.51-0.911
			c-13.379,0-23.718,0.6-34.953,0.911c-1.838-0.911-2.446-5.78-0.633-7.603l5.482-0.92c16.123-2.729,16.725-6.072,16.725-38.013
			V102.326L2019.563,102.326z M2044.509,142.77c0,8.51,0.296,9.125,15.816,8.51c31.019-1.21,47.737-10.34,47.737-38.922
			c0-29.809-22.203-41.059-45.321-41.059c-6.673,0-11.236,0.618-13.97,1.83c-3.045,0.919-4.264,2.436-4.264,7.902L2044.509,142.77
			L2044.509,142.77z M2044.509,213.32c0,10.945,0.595,26.459,6.382,33.15c5.77,6.987,14.899,8.514,24.033,8.514
			c27.064,0,47.743-12.162,47.743-42.577c0-24.021-12.172-51.998-60.533-51.998c-16.407,0-17.625,1.817-17.625,7.903V213.32z"/>
	</g>
	<g>
		<defs>
			<rect id="SVGID_52_" x="-1476.234" y="-3346.95" width="5624.941" height="7279.338"/>
		</defs>
		<clipPath id="SVGID_53_">
			<use xlink:href="#SVGID_52_"  overflow="visible"/>
		</clipPath>
		<path display="none" clip-path="url(#SVGID_53_)" fill="#FDB913" d="M2210.242,83.773c22.195-17.331,50.478-25.854,82.111-25.854
			c16.423,0,39.525,3.344,53.815,7.296c3.653,0.922,5.78,1.517,8.522,1.227c0.289,6.99,1.819,26.155,4.26,44.702
			c-1.517,2.115-6.079,2.429-8.225,0.599c-4.559-20.682-18.229-44.396-62.344-44.396c-46.515,0-86.052,29.494-86.052,92.453
			c0,63.854,40.446,99.14,90.335,99.14c39.212,0,56.553-25.547,63.545-43.492c2.13-1.518,6.686-0.91,7.908,1.211
			c-2.125,15.83-10.045,35.89-14.604,41.676c-3.641,0.605-7.297,1.816-10.643,3.034c-6.684,2.431-28.569,6.989-48.039,6.989
			c-27.386,0-53.541-5.471-75.734-20.365c-24.309-16.731-43.188-44.403-43.188-83.629
			C2171.914,130.614,2187.133,101.717,2210.242,83.773"/>
	</g>
	<g>
		<defs>
			<rect id="SVGID_54_" x="-1476.234" y="-3346.95" width="5624.941" height="7279.338"/>
		</defs>
		<clipPath id="SVGID_55_">
			<use xlink:href="#SVGID_54_"  overflow="visible"/>
		</clipPath>
		<rect x="1267.653" y="-315.703" display="none" clip-path="url(#SVGID_55_)" fill="#FDB913" width="6.147" height="580.902"/>
	</g>
	<g>
		<defs>
			<rect id="SVGID_56_" x="-1476.234" y="-3346.95" width="5624.941" height="7279.338"/>
		</defs>
		<clipPath id="SVGID_57_">
			<use xlink:href="#SVGID_56_"  overflow="visible"/>
		</clipPath>
		<path clip-path="url(#SVGID_57_)" fill="#FFFFFF" d="M582.32,74.386c0-10.596-0.755-13.409-7.906-13.979l-4.975-0.341
			c-0.816-0.65-0.599-3.518,0.148-3.596c8.596-0.754,19.407-1.139,34.187-1.139c10.015,0,19.548,0.719,26.706,4.006
			c6.836,3.008,12.085,8.734,12.085,17.899c0,10.322-6.692,15.621-16.219,19.628c0,1.437,1.271,1.869,3.02,2.146
			c8.588,1.442,21.299,8.592,21.299,23.916c0,16.626-13.669,27.803-42.28,27.803c-4.609,0-12.397-0.434-19.083-0.434
			c-6.98,0-12.396,0.287-18.274,0.434c-0.959-0.434-1.28-2.742-0.315-3.595l2.857-0.42c8.419-1.29,8.752-2.869,8.752-17.909
			L582.32,74.386L582.32,74.386z M595.354,93.428c0,4.008,0.165,4.302,8.271,4.008c16.204-0.572,24.945-4.86,24.945-18.333
			c0-14.039-11.6-19.34-23.688-19.34c-3.506,0-5.889,0.302-7.313,0.862c-1.582,0.432-2.215,1.15-2.215,3.735V93.428z
			 M595.354,126.656c0,5.154,0.3,12.452,3.324,15.612c3.026,3.303,7.794,4.02,12.576,4.02c14.143,0,24.952-5.742,24.952-20.064
			c0-11.322-6.358-24.485-31.637-24.485c-8.584,0-9.217,0.852-9.217,3.722L595.354,126.656L595.354,126.656z"/>
	</g>
	<g>
		<defs>
			<rect id="SVGID_58_" x="-1476.234" y="-3346.95" width="5624.941" height="7279.338"/>
		</defs>
		<clipPath id="SVGID_59_">
			<use xlink:href="#SVGID_58_"  overflow="visible"/>
		</clipPath>
		<path clip-path="url(#SVGID_59_)" fill="#FFFFFF" d="M761.16,88.477c0-12.969-0.264-15.047-8.279-15.654l-3.395-0.246
			c-0.814-0.506-0.539-2.692,0.275-3.061c6.787,0.237,11.397,0.368,17.104,0.368c5.432,0,10.048-0.131,16.83-0.368
			c0.819,0.368,1.094,2.555,0.275,3.061l-3.394,0.246c-8.006,0.607-8.281,2.686-8.281,15.654v43.547
			c0,12.959,0.275,14.695,8.281,15.554l3.394,0.354c0.817,0.498,0.544,2.684-0.275,3.06c-6.782-0.237-11.398-0.376-16.83-0.376
			c-5.707,0-10.317,0.139-17.104,0.376c-0.814-0.376-1.091-2.323-0.275-3.06l3.395-0.354c8.018-0.858,8.279-2.595,8.279-15.554
			V88.477z"/>
	</g>
	<g>
		<defs>
			<rect id="SVGID_60_" x="-1476.234" y="-3346.95" width="5624.941" height="7279.338"/>
		</defs>
		<clipPath id="SVGID_61_">
			<use xlink:href="#SVGID_60_"  overflow="visible"/>
		</clipPath>
		<path clip-path="url(#SVGID_61_)" fill="#FFFFFF" d="M836.493,132.272c0,12.841,0.257,14.681,7.647,15.305l4.063,0.357
			c0.762,0.487,0.513,2.686-0.25,3.063c-7.251-0.239-11.582-0.378-16.651-0.378c-5.104,0-9.554,0.139-17.708,0.378
			c-0.764-0.378-1.021-2.447,0-3.063l4.59-0.357c7.25-0.624,7.874-2.464,7.874-15.305V77.589c0-3.788,0-3.908-3.814-3.908h-6.99
			c-5.474,0-12.463,0.248-15.654,3.061c-3.045,2.685-4.309,5.368-5.717,8.429c-1.021,0.742-2.793,0.129-3.318-0.862
			c2.056-5.489,3.958-13.317,4.847-18.22c0.376-0.248,2.041-0.354,2.418,0c0.761,3.918,4.963,3.796,10.815,3.796h51.525
			c6.863,0,8.014-0.246,9.917-3.429c0.647-0.237,2.042-0.117,2.287,0.358c-1.396,5.032-2.287,14.938-1.899,18.603
			c-0.507,0.988-2.678,0.988-3.31,0.25c-0.378-3.06-1.28-7.592-3.185-8.925c-2.931-2.106-7.752-3.061-14.75-3.061h-9.043
			c-3.814,0-3.694,0.12-3.694,4.165V132.272L836.493,132.272z"/>
	</g>
	<g>
		<defs>
			<rect id="SVGID_62_" x="-1476.234" y="-3346.95" width="5624.941" height="7279.338"/>
		</defs>
		<clipPath id="SVGID_63_">
			<use xlink:href="#SVGID_62_"  overflow="visible"/>
		</clipPath>
		<path clip-path="url(#SVGID_63_)" fill="#FFFFFF" d="M891.029,88.477c0-12.969-0.265-15.047-8.271-15.654l-3.398-0.246
			c-0.809-0.506-0.546-2.692,0.264-3.061c6.795,0.237,11.405,0.368,17.115,0.368c5.439,0,10.052-0.131,16.83-0.368
			c0.816,0.368,1.088,2.555,0.271,3.061l-3.401,0.246c-8.005,0.607-8.261,2.686-8.261,15.654v43.547
			c0,12.959,0.256,14.695,8.261,15.554l3.401,0.354c0.815,0.498,0.545,2.684-0.271,3.06c-6.778-0.237-11.391-0.376-16.83-0.376
			c-5.71,0-10.32,0.139-17.115,0.376c-0.81-0.376-1.071-2.323-0.264-3.06l3.398-0.354c8.006-0.858,8.271-2.595,8.271-15.554V88.477z
			"/>
	</g>
	<g>
		<defs>
			<rect id="SVGID_64_" x="-1476.234" y="-3346.95" width="5624.941" height="7279.338"/>
		</defs>
		<clipPath id="SVGID_65_">
			<use xlink:href="#SVGID_64_"  overflow="visible"/>
		</clipPath>
		<path clip-path="url(#SVGID_65_)" fill="#FFFFFF" d="M951.874,152.24c-12.11,0-19.758-3.184-22.502-4.523
			c-1.741-2.7-3.618-11.367-3.902-17.121c0.716-0.856,2.877-1.115,3.466-0.369c2.157,6.243,8.088,18.226,24.826,18.226
			c12.12,0,18.049-6.736,18.049-14.069c0-5.375-1.307-11.382-11.839-17.135l-13.707-7.579c-7.228-4.035-15.6-11.015-15.6-21.039
			c0-11.629,10.676-21.049,29.456-21.049c4.466,0,9.654,0.744,13.41,1.59c1.885,0.498,3.895,0.735,5.051,0.735
			c1.306,2.949,2.604,9.787,2.604,14.936c-0.577,0.735-2.888,1.096-3.611,0.36c-1.868-5.865-5.766-13.823-19.621-13.823
			c-14.157,0-17.181,7.958-17.181,13.583c0,7.097,6.931,12.23,12.271,15.043l11.542,6.123c9.102,4.762,18.055,11.855,18.055,23.484
			C982.643,143.067,970.654,152.24,951.874,152.24"/>
	</g>
	<g>
		<defs>
			<rect id="SVGID_66_" x="-1476.234" y="-3346.95" width="5624.941" height="7279.338"/>
		</defs>
		<clipPath id="SVGID_67_">
			<use xlink:href="#SVGID_66_"  overflow="visible"/>
		</clipPath>
		<path clip-path="url(#SVGID_67_)" fill="#FFFFFF" d="M1024.545,111.115c-6.305,0-6.585,0.237-6.585,3.912v17.243
			c0,12.852,0.655,14.571,8.032,15.304l3.813,0.357c0.788,0.498,0.524,2.684-0.254,3.06c-7.103-0.237-11.593-0.376-16.717-0.376
			c-5.672,0-10.139,0.261-15.266,0.376c-0.795-0.376-1.069-2.323-0.281-3.06l2.244-0.357c7.379-1.231,7.631-2.452,7.631-15.304
			V88.239c0-12.854-0.912-14.926-7.758-15.417l-3.42-0.246c-0.795-0.499-0.544-2.692,0.258-3.061
			c6.453,0.116,10.92,0.368,16.592,0.368c5.124,0,9.614-0.131,15.271-0.368c0.786,0.368,1.049,2.562,0.254,3.061l-2.481,0.246
			c-7.638,0.737-7.918,2.563-7.918,15.417V102.3c0,3.798,0.28,3.913,6.585,3.913h37.664c6.302,0,6.563-0.115,6.563-3.913V88.239
			c0-12.854-0.261-14.68-8.016-15.417l-2.512-0.246c-0.777-0.499-0.531-2.692,0.264-3.061c6.062,0.237,10.538,0.368,15.939,0.368
			c5.134,0,9.609-0.131,15.522-0.368c0.796,0.368,1.049,2.562,0.261,3.061l-2.76,0.246c-7.637,0.737-7.891,2.563-7.891,15.417
			v44.031c0,12.852,0.254,14.448,7.891,15.304l3.166,0.357c0.77,0.498,0.525,2.684-0.266,3.06
			c-6.314-0.237-10.791-0.376-15.925-0.376c-5.401,0-10.146,0.139-15.939,0.376c-0.795-0.376-1.041-2.323-0.264-3.06l2.512-0.357
			c8.015-1.231,8.015-2.452,8.015-15.304v-17.243c0-3.675-0.26-3.912-6.562-3.912H1024.545z"/>
	</g>
	<g>
		<defs>
			<rect id="SVGID_68_" x="-1476.234" y="-3346.95" width="5624.941" height="7279.338"/>
		</defs>
		<clipPath id="SVGID_69_">
			<use xlink:href="#SVGID_68_"  overflow="visible"/>
		</clipPath>
		<path clip-path="url(#SVGID_69_)" fill="#FFFFFF" d="M506.971,177.874c10.816-8.429,24.613-12.556,40.018-12.556
			c8.017,0,19.274,1.619,26.238,3.549c1.768,0.431,2.816,0.736,4.146,0.578c0.146,3.41,0.892,12.709,2.087,21.73
			c-0.746,1.027-2.967,1.176-4.018,0.282c-2.216-10.034-8.886-21.572-30.386-21.572c-22.672,0-41.947,14.339-41.947,44.91
			c0,31.021,19.727,48.14,44.028,48.14c19.125,0,27.558-12.387,30.979-21.109c1.042-0.746,3.263-0.438,3.854,0.586
			c-1.038,7.684-4.889,17.429-7.104,20.251c-1.793,0.272-3.567,0.885-5.194,1.481c-3.264,1.174-13.934,3.368-23.425,3.368
			c-13.348,0-26.076-2.655-36.896-9.885c-11.875-8.119-21.061-21.565-21.061-40.61C488.289,200.623,495.71,186.598,506.971,177.874"
			/>
	</g>
	<g>
		<defs>
			<rect id="SVGID_70_" x="-1476.234" y="-3346.95" width="5624.941" height="7279.338"/>
		</defs>
		<clipPath id="SVGID_71_">
			<use xlink:href="#SVGID_70_"  overflow="visible"/>
		</clipPath>
		<path clip-path="url(#SVGID_71_)" fill="#FFFFFF" d="M588.035,225.635c0-24.455,19.272-43.168,45.736-43.168
			c29.659,0,44.56,20.424,44.56,41.957c0,24.703-19.772,42.691-44.56,42.691C605.252,267.115,588.035,247.671,588.035,225.635
			 M665.487,228.221c0-20.195-9.371-41.957-33.911-41.957c-13.356,0-30.694,8.684-30.694,35.475
			c0,18.092,9.249,41.599,34.544,41.599C650.846,263.336,665.487,252.318,665.487,228.221"/>
	</g>
	<g>
		<defs>
			<rect id="SVGID_72_" x="-1476.234" y="-3346.95" width="5624.941" height="7279.338"/>
		</defs>
		<clipPath id="SVGID_73_">
			<use xlink:href="#SVGID_72_"  overflow="visible"/>
		</clipPath>
		<path clip-path="url(#SVGID_73_)" fill="#FFFFFF" d="M823.256,215.123c0-7.583-0.255-21.637-2.482-25.321
			c-0.886-1.463-3.218-2.323-6.479-2.565l-3.227-0.246c-0.772-0.852-0.528-2.455,0.245-2.94c4.938,0.247,9.736,0.378,14.802,0.378
			c5.437,0,8.938-0.131,13.61-0.359c1.038,0.607,0.92,2.188,0.266,2.923l-3.122,0.247c-3.236,0.24-5.712,1.342-6.479,2.935
			c-1.81,4.035-1.81,18.104-1.81,24.952v13.831c0,10.646-1.82,21.896-9.076,29.239c-5.583,5.744-15.188,8.926-24.776,8.926
			c-8.944,0-17.9-1.583-24.245-6.73c-6.876-5.396-10.111-14.309-10.111-28.856v-28.88c0-12.723-0.264-14.817-7.784-15.416
			l-3.243-0.246c-0.779-0.488-0.521-2.563,0.247-2.94c6.485,0.247,10.911,0.378,16.094,0.378c5.312,0,9.595-0.131,15.954-0.359
			c0.771,0.359,1.04,2.435,0.25,2.923l-3.109,0.247c-7.527,0.598-7.783,2.691-7.783,15.416v26.426
			c0,19.688,6.501,32.65,26.333,32.65c18.806,0,25.931-13.938,25.931-32.535v-14.074H823.256z"/>
	</g>
	<g>
		<defs>
			<rect id="SVGID_74_" x="-1476.234" y="-3346.95" width="5624.941" height="7279.338"/>
		</defs>
		<clipPath id="SVGID_75_">
			<use xlink:href="#SVGID_74_"  overflow="visible"/>
		</clipPath>
		<path clip-path="url(#SVGID_75_)" fill="#FFFFFF" d="M973.986,199.842c0-9.142-0.582-11.486-7.032-11.974l-4.585-0.451
			c-0.524-0.468-0.8-2.95,0.148-3.022c7.737-0.578,17.489-0.974,30.804-0.974c9.045,0,17.634,0.615,24.083,3.456
			c6.169,2.589,10.9,7.525,10.9,15.447c0,8.891-6.021,13.469-14.624,16.925c0,1.22,1.149,1.604,2.731,1.853
			c7.74,1.242,19.206,7.409,19.206,20.627c0,14.328-12.331,23.969-38.144,23.969c-4.154,0-11.172-0.368-17.187-0.368
			c-6.304,0-11.185,0.252-16.499,0.368c-0.844-0.368-1.137-2.334-0.284-3.077l2.582-0.377c7.602-1.114,7.897-2.481,7.897-15.431
			v-46.971H973.986z M985.734,216.27c0,3.465,0.147,3.701,7.46,3.465c14.604-0.484,22.497-4.191,22.497-15.809
			c0-12.115-10.463-16.689-21.356-16.689c-3.146,0-5.304,0.248-6.604,0.748c-1.426,0.371-1.995,0.988-1.995,3.219L985.734,216.27
			L985.734,216.27z M985.734,244.955c0,4.445,0.281,10.744,3.013,13.452c2.72,2.851,7.021,3.467,11.334,3.467
			c12.733,0,22.486-4.942,22.486-17.306c0-9.754-5.732-21.12-28.519-21.12c-7.745,0-8.314,0.745-8.314,3.214V244.955z"/>
	</g>
	<g>
		<defs>
			<rect id="SVGID_76_" x="-1476.234" y="-3346.95" width="5624.941" height="7279.338"/>
		</defs>
		<clipPath id="SVGID_77_">
			<use xlink:href="#SVGID_76_"  overflow="visible"/>
		</clipPath>
		<path clip-path="url(#SVGID_77_)" fill="#FFFFFF" d="M740.41,147.942l-3.392-0.298c-0.694-0.063-1.306-0.161-1.87-0.247
			c-4.984-0.894-6.973-5.321-9.316-9.42l-11.736-20.442c-2.029-3.41-4.209-8.006-8.831-8.656
			c12.022-1.446,22.902-8.382,22.902-20.303c0-13.786-13.63-19.943-27.414-19.943c-8.253,0-15.789,0.228-24.192,0.228
			c-4.648,0-10.164-0.228-14.795-0.228c-2.585,0-2.61,0.52-2.61,1.965c0,2.131,0.896,1.533,3.616,1.683
			c9.812,0.552,9.425,2.379,9.425,10.771v53.619c0,7.667,0.674,9.965-7.394,10.685c0,0-1.229,0.129-1.931,0.199l-3.414,0.353
			c-0.821,0.733-0.543,2.691,0.274,3.06c1.807-0.066,5.023-0.192,5.023-0.192c4.462-0.132,8.928-0.479,13.381-0.479
			c4.479,0,8.773,0.348,13.191,0.479v0.008c1.563,0.037,3.218,0.1,5.025,0.167c0.823-0.367,1.096-2.326,0.271-3.06l-3.429-0.325
			c-0.698-0.08-1.914-0.183-1.914-0.183c-8.137-0.544-7.64-2.851-7.64-10.711v-20.18c0-1.186-0.137-4.339,0.729-5.251
			c0.725-0.789,2.04-0.669,3.188-0.669c11.023,0,10.883,1.073,16.096,10.236l14.222,25.564c1.146,1.964,2.009,4.447,4.92,4.447
			h12.351c1.542,0.053,3.187,0.111,4.99,0.173C740.953,150.624,741.229,148.668,740.41,147.942 M690.916,107.738
			c-2.463,0-7.399,0.931-7.399-2.351V81.912c0-9.174,0.3-10.489,11.313-10.489c12.9,0,20.876,6.558,20.876,18.617
			c0,5.245-1.884,10.096-6.677,13.368C703.537,107.213,697.581,107.738,690.916,107.738"/>
	</g>
	<g>
		<defs>
			<rect id="SVGID_78_" x="-1476.234" y="-3346.95" width="5624.941" height="7279.338"/>
		</defs>
		<clipPath id="SVGID_79_">
			<use xlink:href="#SVGID_78_"  overflow="visible"/>
		</clipPath>
		<path clip-path="url(#SVGID_79_)" fill="#FFFFFF" d="M693.575,203.063c0-12.832-0.258-14.799-8.731-15.414l-3.373-0.25
			c-0.813-0.476-0.544-2.693,0.266-3.062c7.533,0.25,12.104,0.367,17.488,0.367c5.259,0,9.841-0.117,16.559-0.356
			c0.807,0.356,1.073,2.575,0.264,3.051l-3.229,0.25c-7.936,0.615-8.205,2.582-8.205,15.414v42.578
			c0,7.705,0.398,10.894,2.832,13.209c1.473,1.342,4.025,2.813,14.67,2.813c11.433,0,14.264-0.484,16.416-1.588
			c2.692-1.463,6.186-5.866,8.877-12.109c0.798-0.613,3.369-0.124,3.369,0.729c0,1.342-3.773,13.813-5.646,17.135
			c-6.881-0.251-19.65-0.368-33.531-0.368h-12.374c-5.648,0-9.955,0.117-17.488,0.368c-0.81-0.368-1.077-2.314-0.266-3.051
			l4.026-0.387c7.82-0.729,8.078-2.447,8.078-15.277L693.575,203.063L693.575,203.063z"/>
	</g>
	<g>
		<defs>
			<rect id="SVGID_80_" x="-1476.234" y="-3346.95" width="5624.941" height="7279.338"/>
		</defs>
		<clipPath id="SVGID_81_">
			<use xlink:href="#SVGID_80_"  overflow="visible"/>
		</clipPath>
		<path clip-path="url(#SVGID_81_)" fill="#FFFFFF" d="M1054.082,203.311c0-12.968-0.268-15.041-8.061-15.662l-3.302-0.246
			c-0.791-0.489-0.53-2.692,0.27-3.063c6.603,0.247,11.093,0.369,16.636,0.369c5.28,0,9.777-0.122,16.393-0.357
			c0.797,0.357,1.053,2.562,0.254,3.051l-3.291,0.246c-7.808,0.621-8.074,2.694-8.074,15.662v43.553
			c0,12.955,0.268,14.674,8.074,15.531l3.291,0.387c0.799,0.467,0.543,2.675-0.254,3.049c-6.614-0.249-11.111-0.374-16.393-0.374
			c-5.543,0-10.033,0.125-16.636,0.374c-0.8-0.374-1.061-2.327-0.27-3.049l3.302-0.387c7.793-0.857,8.061-2.576,8.061-15.531
			V203.311z"/>
	</g>
	<g>
		<defs>
			<rect id="SVGID_82_" x="-1476.234" y="-3346.95" width="5624.941" height="7279.338"/>
		</defs>
		<clipPath id="SVGID_83_">
			<use xlink:href="#SVGID_82_"  overflow="visible"/>
		</clipPath>
		<path clip-path="url(#SVGID_83_)" fill="#FFFFFF" d="M948.493,262.357c-0.667-0.063-1.938-0.166-1.938-0.166
			c-1.396-0.125-2.639-0.332-3.624-1.412c-1.726-1.813-1.569-7.018-1.569-9.094v-53.611c0-2.333-0.581-7.389,1.125-9.21
			c0.857-0.954,2.66-1.121,4.253-1.209c0.944-0.064,0.972-0.064,1.813-0.122l3.395-0.247c0.815-0.49,0.553-2.69-0.256-3.054
			c-1.82,0.063-3.457,0.026-5.029,0.088v0.007h-14.455c-1.563,0-2.991,0-3.842,1.67l-29.416,61.269l-25.99-59.172
			c-0.854-2.097-0.992-3.767-3.703-3.767H854.22c-1.558-0.058-3.284-0.031-5.099-0.095c-0.809,0.361-1.089,2.563-0.281,3.054
			l3.41,0.247c0.701,0.058,1.956,0.148,1.956,0.148c5.639,0.356,6.007,1.619,5.481,7.543l-4.429,57.504
			c-0.397,5.77-0.713,8.832-6.757,9.391c0,0-1.271,0.156-1.967,0.229l-3.411,0.362c-0.812,0.735-0.531,2.69,0.276,3.067
			c1.8-0.072,4.971-0.166,4.971-0.166c3.074-0.148,6.187-0.424,9.325-0.424c3.368,0,6.729,0.324,10.114,0.451v0.008
			c1.564,0.035,3.203,0.112,5.027,0.156c0.802-0.357,1.084-2.314,0.276-3.051l-3.401-0.367c-0.9-0.063-1.893-0.166-1.893-0.166
			c-8.733-0.599-8.54-6.755-7.996-14.281l4.145-53.485h0.995l28.145,65.802c0.271,0.91,0.691,2.463,2.129,2.463
			c1.282,0,1.72-1.412,2.141-2.324l31.698-67.5h0.996v58.793c0,2.349,0.274,7.137-2.137,8.963c-1.271,0.945-5.395,1.498-5.395,1.498
			c-0.577,0.09-1.168,0.186-1.834,0.24l-3.401,0.385c-0.819,0.734-0.536,2.685,0.271,3.053c1.789-0.063,4.964-0.167,4.964-0.167
			c4.598-0.116,9.278-0.47,13.954-0.47c3.366,0,9.942,0.326,9.942,0.326c1.582,0.045,3.379,0.209,5.187,0.282
			c0.809-0.377,1.095-2.334,0.271-3.069L948.493,262.357z"/>
	</g>
	<g>
		<defs>
			<rect id="SVGID_84_" x="-1476.234" y="-3346.95" width="5624.941" height="7279.338"/>
		</defs>
		<clipPath id="SVGID_85_">
			<use xlink:href="#SVGID_84_"  overflow="visible"/>
		</clipPath>
		<path clip-path="url(#SVGID_85_)" fill="#FFFFFF" d="M1169.138,262.691l-0.453-0.365c-0.683-0.069-1.288-0.145-1.852-0.247
			c-5.283-1.167-7.359-7.544-9.303-12.086l-27.24-64.44c-0.257-0.771-0.8-2.433-1.886-2.433c-1.465,0-1.871,1.791-2.289,2.819
			l-26.006,64.318c-0.939,2.43-3.37,8.348-5.12,10.129c-1.335,1.387-3.089,1.647-4.952,1.842c0,0-1.475,0.125-2.163,0.209
			l-3.208,0.342c-0.808,0.723-0.533,2.676,0.282,3.05c1.813-0.072,5.036-0.188,5.036-0.188c3.553-0.052,7.108-0.5,10.675-0.5
			c2.996,0,5.983,0.322,8.979,0.457c0,0,3.218,0.104,5.026,0.178c0.82-0.36,1.086-2.326,0.265-3.055l-3.399-0.375
			c-0.659-0.063-1.826-0.17-1.826-0.17c-3.14-0.344-7.039-0.904-7.039-4.342c0-2.324,1.103-5.008,1.89-7.066l4.047-9.613
			c2.021-4.631,1.222-5.148,6.609-5.148h18.323c6.479,0,5.534,0,8.358,6.545l4.308,9.762c0.682,1.674,1.893,4.481,1.893,6.295
			c0,3.219-3.526,3.43-6.808,3.713c0,0-1.104,0.094-2.039,0.164l-3.275,0.238c-0.797,0.719-0.552,2.685,0.273,3.053
			c1.826-0.072,5.041-0.193,5.041-0.193c3.83-0.146,7.693-0.439,11.396-0.439c4.714,0,9.438,0.322,14.152,0.457v-0.009
			c1.556,0.052,0.251,0.104,2.041,0.168C1169.675,265.386,1169.959,263.434,1169.138,262.691 M1133.479,232.421h-15.892
			c-0.549,0-4.969,0.524-4.969-0.792c0-0.377,0.271-1.154,0.414-1.544l9.526-23.601c0.283-0.655,1.242-3.892,2.353-3.892
			c0.815,0,1.925,3.366,2.21,3.892l9.392,22.048c0,0.258,0.959,2.344,0.959,2.86
			C1137.473,232.805,1134.311,232.421,1133.479,232.421"/>
	</g>
</g>
<g>
	<g>
		<defs>
			<rect id="SVGID_86_" x="-2245.954" y="-2356.561" width="6744.474" height="5211.636"/>
		</defs>
		<clipPath id="SVGID_87_">
			<use xlink:href="#SVGID_86_"  overflow="visible"/>
		</clipPath>
		<path display="none" clip-path="url(#SVGID_87_)" fill="#FFFFFF" d="M919.162,222.666c-1.697,1.674-5.641,1.395-6.752-0.859
			c0.557-7.595,0.839-20.274,0.839-29.016c0-7.893-0.282-22.252-0.839-32.116c0.839-2.536,4.788-2.264,6.752-0.567l0.563,6.473
			c0.567,5.93,2.265,9.312,4.785,9.312c3.393,0,17.749-5.92,37.762-14.65c35.219-15.777,70.438-32.408,105.091-48.756
			c-14.079-6.753-29.854-14.355-45.626-21.69c-5.359-2.537-10.149-4.511-11.563-4.511c-1.405,0-3.938,0.851-7.317,2.257
			c-22.543,9.863-45.089,20.299-67.627,30.994c-8.737,4.226-14.651,8.455-15.503,18.038l-0.563,6.76
			c-2.252,1.963-5.642,1.688-6.752-0.575c0.557-8.174,0.839-18.868,0.839-30.147c0-14.095-0.282-24.506-0.839-30.982
			c0.839-1.991,4.5-2.255,6.752-0.566l0.563,7.327c0.852,10.984,2.821,11.268,15.503,5.911
			c13.804-5.911,31.552-13.805,49.022-21.695c-10.984-5.357-21.697-10.421-36.906-16.616c-23.958-10.137-27.052-8.741-27.619,0.275
			l-0.563,8.457c-2.814,1.968-5.913,1.397-6.752-0.566c0.557-7.619,0.839-16.069,0.839-26.484c0-9.301-0.282-20.569-0.839-27.047
			c0.839-1.979,4.5-2.27,6.752-0.574l0.563,8.176c0.852,11.843,13.521,16.905,25.087,23.102
			c10.413,5.92,34.932,17.748,44.795,21.969c2.815,1.424,5.629,2.541,6.764,2.541c1.12,0,3.372-0.552,6.763-1.958
			c21.693-9.579,42.827-19.451,64.229-28.75c-19.721-8.74-39.441-17.19-59.451-25.355c-13.521-5.646-50.982-20.575-56.07-22.536
			c-10.134-3.67-22.247-8.45-25.623-8.45c-3.964,0-6.205,3.375-6.492,9.289l-0.563,8.168c-2.527,2.263-5.641,1.978-6.752-0.282
			c0.557-10.712,0.839-18.307,0.839-27.054c0-10.695-0.282-18.869-0.839-26.198c0.839-2.252,4.5-2.534,6.752-0.546l0.563,5.339
			c1.413,14.095,9.868,16.633,49.027,33.521l47.624,20.578c28.741,12.397,56.343,23.673,86.494,35.224
			c0.561,0.844,0.842,1.965,0.842,3.369c0,1.424-0.281,2.829-0.842,3.951c-25.067,9.023-60.299,25.365-80.025,34.095
			c20.576,10.148,56.638,27.061,80.025,35.232c0.561,0.835,0.842,1.96,0.842,3.366c0,1.422-0.281,2.829-0.842,4.226
			c-11.829,4.805-37.194,15.791-45.362,19.457c-39.161,18.028-78.339,35.494-117.49,53.815
			c-11.558,5.357-19.166,8.726-20.293,20.558L919.162,222.666z"/>
	</g>
	<g>
		<defs>
			<rect id="SVGID_88_" x="-2245.954" y="-2356.561" width="6744.474" height="5211.636"/>
		</defs>
		<clipPath id="SVGID_89_">
			<use xlink:href="#SVGID_88_"  overflow="visible"/>
		</clipPath>
		<path display="none" clip-path="url(#SVGID_89_)" fill="#FFFFFF" d="M1042.566-132.544c35.226,0,60.584,24.224,60.584,59.441
			c0,32.41-22.82,57.682-58.039,57.682c-35.505,0-60.86-26.677-60.86-59.926C984.251-106.906,1007.923-132.544,1042.566-132.544
			 M992.7-71.964c0,18.598,17.746,32.402,48.755,32.402c25.633,0,53.246-11.566,53.246-36.357c0-24.792-25.926-32.4-47.62-32.4
			C1023.13-108.32,992.7-98.739,992.7-71.964"/>
	</g>
	<g>
		<defs>
			<rect id="SVGID_90_" x="-2245.954" y="-2356.561" width="6744.474" height="5211.636"/>
		</defs>
		<clipPath id="SVGID_91_">
			<use xlink:href="#SVGID_90_"  overflow="visible"/>
		</clipPath>
		<path display="none" clip-path="url(#SVGID_91_)" fill="#FFFFFF" d="M1018.345-159.025c-10.993,0-12.399,0-17.468,7.613
			l-1.696,2.535c-1.124,1.122-4.234,1.122-5.065-0.282c-2.258-6.487-9.575-21.405-13.813-28.459
			c0.284-1.405,0.847-2.248,1.982-2.248h16.343c1.411,0,2.25-0.28,2.533-0.854c-8.174-9.854-16.909-20.566-16.909-30.988
			c0-7.051,4.507-12.688,11.271-12.688c9.297,0,12.953,7.624,12.953,12.117c0,2.817-0.841,4.223-1.969,6.202
			c-2.82,4.228-4.508,8.458-4.508,12.407c0,4.501,2.534,7.886,5.636,10.132c3.943,2.818,12.11,3.673,21.691,3.673h38.321
			c20.293,0,23.675-0.578,24.518-11.275l0.846-10.146c1.417-1.961,6.195-1.411,7.044,0.564c-0.564,13.232-0.849,21.405-0.849,31.263
			c0,10.16,0.283,18.618,0.849,25.927c-0.849,1.979-5.627,2.537-7.044,0.576l-0.846-5.354c-1.691-10.429-4.225-10.714-24.518-10.714
			L1018.345-159.025L1018.345-159.025z"/>
	</g>
	<g>
		<defs>
			<rect id="SVGID_92_" x="-2245.954" y="-2356.561" width="6744.474" height="5211.636"/>
		</defs>
		<clipPath id="SVGID_93_">
			<use xlink:href="#SVGID_92_"  overflow="visible"/>
		</clipPath>
		<path display="none" clip-path="url(#SVGID_93_)" fill="#FFFFFF" d="M940.296-242.418c-16.626,0-18.315,0.275-23.396,8.732
			l-1.684,2.812c-0.847,1.413-4.788,1.413-5.638,0c-2.255-7.037-6.486-20.276-11.842-30.431c0-1.124,0.575-2.245,1.706-2.819
			c8.449,0.29,22.535,0.857,34.935,0.857h96.645c3.659,0,4.224-0.283,4.224-5.073c0-6.197-3.104-11.551-10.984-19.161
			l-12.398-11.551c-8.459-7.886-11.561-9.872-12.964-9.872c-1.413,0-2.25,1.414-2.812,6.212l-0.853,6.762
			c-0.845,2.536-6.194,2.536-7.039,0v-6.488c0-12.391-0.563-29.022-2.259-44.799c0.845-1.968,5.641-2.254,7.049-0.566l1.697,9.024
			c1.121,5.629,3.942,10.421,9.85,17.748c8.741,10.993,18.889,20.566,23.67,25.631c3.104,3.4,4.508,3.673,6.758,1.986
			c6.479-4.799,11.839-9.298,22.548-18.879c12.398-10.993,23.385-20.856,28.743-26.486c3.657-3.942,5.344-9.583,6.195-14.652
			l0.563-3.942c1.417-1.973,6.195-1.689,7.044,0.548c-0.564,8.166-0.849,17.757-0.849,26.778c0,11.268,0.283,21.123,0.849,29.298
			c-1.132,2.261-5.911,2.536-7.044,0.573l-0.846-5.073c-0.57-4.223-1.131-7.044-2.816-7.044c-1.687,0-3.666,1.125-7.89,4.783
			l-34.934,30.146c-2.819,2.527-3.953,5.645-3.953,8.739c0,5.074,0.85,5.357,9.582,5.357h15.493
			c20.293,0,23.104-0.567,24.518-10.704l0.846-6.771c1.417-1.961,6.195-1.404,7.044,0.558c-0.564,9.3-0.849,17.465-0.849,27.336
			c0,10.146,0.283,18.594,0.849,27.044c-0.849,1.979-5.627,2.545-7.044,0.283l-0.846-6.197
			c-1.414-10.427-4.225-10.702-24.518-10.702H940.296V-242.418z"/>
	</g>
	<g>
		<defs>
			<rect id="SVGID_94_" x="-2245.954" y="-2356.561" width="6744.474" height="5211.636"/>
		</defs>
		<clipPath id="SVGID_95_">
			<use xlink:href="#SVGID_94_"  overflow="visible"/>
		</clipPath>
		<path display="none" clip-path="url(#SVGID_95_)" fill="#FDB913" d="M949.883-383.861c-20.856,0-26.207,1.124-27.336,13.806
			l-0.839,9.014c-1.695,2.247-5.923,1.979-7.045-0.29c-1.414-15.212-2.271-34.372-2.271-60.576c0-17.748,1.413-34.653,7.899-47.329
			c5.913-12.113,17.179-21.411,35.218-21.411c20.285,0,30.702,11.833,38.604,28.73c2.814,0,3.662-2.252,4.216-5.337
			c2.817-15.228,16.914-37.765,47.063-37.765c32.679,0,54.662,24.219,54.662,74.938c0,8.174-0.84,21.98-0.84,33.821
			c0,12.399,0.547,21.982,0.84,32.394c-0.84,1.696-5.354,2.259-7.044,0.581l-0.846-5.081c-2.528-14.937-5.632-15.494-35.225-15.494
			L949.883-383.861L949.883-383.861z M987.354-406.971c7.883,0,8.451-0.274,7.883-14.651c-1.121-28.741-9.581-44.234-36.063-44.234
			c-27.619,0-38.041,20.571-38.041,41.988c0,6.188,0.577,10.411,1.695,12.947c0.85,2.82,2.257,3.951,7.319,3.951L987.354-406.971
			L987.354-406.971z M1052.72-406.971c10.136,0,24.517-0.557,30.71-5.913c6.479-5.346,7.894-13.804,7.894-22.27
			c0-25.075-11.265-44.234-39.451-44.234c-22.254,0-48.177,11.276-48.177,56.083c0,15.203,1.682,16.333,7.321,16.333
			L1052.72-406.971L1052.72-406.971z"/>
	</g>
	<g>
		<defs>
			<rect id="SVGID_96_" x="-2245.954" y="-2356.561" width="6744.474" height="5211.636"/>
		</defs>
		<clipPath id="SVGID_97_">
			<use xlink:href="#SVGID_96_"  overflow="visible"/>
		</clipPath>
		<path display="none" clip-path="url(#SVGID_97_)" fill="#FDB913" d="M932.693-560.528c-16.06-20.567-23.961-46.77-23.961-76.077
			c0-15.221,3.1-36.626,6.761-49.865c0.854-3.383,1.407-5.355,1.142-7.899c6.481-0.266,24.23-1.678,41.412-3.941
			c1.967,1.405,2.255,5.629,0.559,7.619c-19.162,4.222-41.132,16.888-41.132,57.761c0,43.096,27.328,79.727,85.659,79.727
			c59.158,0,91.85-37.47,91.85-83.692c0-36.335-23.666-52.399-40.291-58.879c-1.407-1.97-0.846-6.195,1.125-7.325
			c14.657,1.968,33.248,9.306,38.611,13.529c0.554,3.377,1.677,6.762,2.811,9.863c2.252,6.186,6.476,26.47,6.476,44.508
			c0,25.375-5.071,49.605-18.864,70.172c-15.504,22.521-41.143,40.008-77.497,40.008
			C976.086-525.018,949.313-539.113,932.693-560.528"/>
	</g>
	<g>
		<defs>
			<rect id="SVGID_98_" x="-2245.954" y="-2356.561" width="6744.474" height="5211.636"/>
		</defs>
		<clipPath id="SVGID_99_">
			<use xlink:href="#SVGID_98_"  overflow="visible"/>
		</clipPath>
		<rect x="562.566" y="303.104" clip-path="url(#SVGID_99_)" fill="#FDB913" width="538.223" height="5.696"/>
	</g>
	<g>
		<defs>
			<rect id="SVGID_100_" x="-2245.954" y="-2356.561" width="6744.474" height="5211.636"/>
		</defs>
		<clipPath id="SVGID_101_">
			<use xlink:href="#SVGID_100_"  overflow="visible"/>
		</clipPath>
		<path display="none" clip-path="url(#SVGID_101_)" fill="#004B8D" d="M923.997,947.784c-9.823,0-12.427,0.697-12.952,7.314
			l-0.318,4.607c-0.604,0.767-3.253,0.558-3.334-0.133c-0.696-7.967-1.055-17.98-1.055-31.667c0-9.281,0.668-18.112,3.708-24.746
			c2.798-6.341,8.101-11.196,16.581-11.196c9.565,0,14.482,6.194,18.197,15.021c1.33,0,1.732-1.185,1.981-2.796
			c1.334-7.953,7.964-19.737,22.159-19.737c15.403,0,25.762,12.669,25.762,39.181c0,4.274-0.403,11.486-0.403,17.682
			c0,6.471,0.263,11.483,0.403,16.93c-0.403,0.883-2.539,1.182-3.336,0.292l-0.387-2.651c-1.189-7.803-2.652-8.1-16.595-8.1
			L923.997,947.784L923.997,947.784z M941.634,935.71c3.714,0,3.99-0.162,3.714-7.67c-0.522-15.017-4.501-23.111-16.988-23.111
			c-13.009,0-17.912,10.747-17.912,21.947c0,3.24,0.279,5.454,0.796,6.778c0.401,1.465,1.067,2.056,3.46,2.056H941.634
			L941.634,935.71z M972.421,935.71c4.78,0,11.536-0.286,14.469-3.088c3.062-2.805,3.727-7.229,3.727-11.652
			c0-13.103-5.324-23.12-18.597-23.12c-10.487,0-22.689,5.892-22.689,29.308c0,7.963,0.805,8.554,3.456,8.554L972.421,935.71
			L972.421,935.71z"/>
	</g>
	<g>
		<defs>
			<rect id="SVGID_102_" x="-2245.954" y="-2356.561" width="6744.474" height="5211.636"/>
		</defs>
		<clipPath id="SVGID_103_">
			<use xlink:href="#SVGID_102_"  overflow="visible"/>
		</clipPath>
		<path display="none" clip-path="url(#SVGID_103_)" fill="#004B8D" d="M937.051,782.074c-12.016,0-13.943,0.248-14.504,7.675
			l-0.226,3.145c-0.472,0.758-2.495,0.509-2.845-0.258c0.229-6.288,0.35-10.562,0.35-15.854c0-5.021-0.121-9.297-0.35-15.582
			c0.35-0.765,2.373-1.016,2.845-0.256l0.226,3.142c0.561,7.422,2.488,7.677,14.504,7.677h40.34c12.013,0,13.625-0.255,14.42-7.677
			l0.322-3.142c0.458-0.759,2.489-0.509,2.837,0.256c-0.213,6.285-0.348,10.563-0.348,15.582c0,5.292,0.135,9.564,0.348,15.854
			c-0.348,0.767-2.152,1.016-2.837,0.258l-0.322-3.145c-0.795-7.427-2.407-7.675-14.42-7.675H937.051z"/>
	</g>
	<g>
		<defs>
			<rect id="SVGID_104_" x="-2245.954" y="-2356.561" width="6744.474" height="5211.636"/>
		</defs>
		<clipPath id="SVGID_105_">
			<use xlink:href="#SVGID_104_"  overflow="visible"/>
		</clipPath>
		<path display="none" clip-path="url(#SVGID_105_)" fill="#004B8D" d="M977.623,712.284c11.902,0,13.607-0.242,14.188-7.083
			l0.33-3.769c0.45-0.708,2.481-0.473,2.829,0.227c-0.213,6.719-0.348,10.732-0.348,15.431c0,4.725,0.135,8.85,0.348,16.4
			c-0.348,0.717-2.258,0.951-2.829,0l-0.33-4.241c-0.58-6.719-2.284-7.3-14.188-7.3h-50.661c-3.512,0-3.628,0-3.628,3.531v6.48
			c0,5.069,0.234,11.541,2.848,14.506c2.477,2.817,4.977,3.989,7.801,5.295c0.699,0.938,0.127,2.588-0.8,3.066
			c-5.081-1.895-12.342-3.656-16.882-4.48c-0.225-0.351-0.324-1.888,0-2.236c3.639-0.715,3.525-4.608,3.525-10.03v-47.734
			c0-6.358-0.231-7.424-3.174-9.188c-0.228-0.598-0.119-1.89,0.333-2.12c4.655,1.297,13.836,2.12,17.229,1.764
			c0.916,0.464,0.916,2.479,0.23,3.06c-2.835,0.354-7.033,1.188-8.264,2.95c-1.957,2.722-2.848,7.185-2.848,13.666v8.382
			c0,3.534,0.116,3.427,3.862,3.427h50.428V712.284z"/>
	</g>
	<g>
		<defs>
			<rect id="SVGID_106_" x="-2245.954" y="-2356.561" width="6744.474" height="5211.636"/>
		</defs>
		<clipPath id="SVGID_107_">
			<use xlink:href="#SVGID_106_"  overflow="visible"/>
		</clipPath>
		<path display="none" clip-path="url(#SVGID_107_)" fill="#004B8D" d="M937.051,661.756c-12.016,0-13.943,0.24-14.504,7.66
			l-0.226,3.15c-0.472,0.75-2.495,0.5-2.845-0.247c0.229-6.289,0.35-10.563,0.35-15.855c0-5.035-0.121-9.31-0.35-15.599
			c0.35-0.749,2.373-1.007,2.845-0.249l0.226,3.149c0.561,7.417,2.488,7.662,14.504,7.662h40.34c12.013,0,13.625-0.245,14.42-7.662
			l0.322-3.149c0.458-0.758,2.489-0.5,2.837,0.249c-0.213,6.289-0.348,10.563-0.348,15.599c0,5.292,0.135,9.566,0.348,15.855
			c-0.348,0.747-2.152,0.997-2.837,0.247l-0.322-3.15c-0.795-7.42-2.407-7.66-14.42-7.66H937.051z"/>
	</g>
	<g>
		<defs>
			<rect id="SVGID_108_" x="-2245.954" y="-2356.561" width="6744.474" height="5211.636"/>
		</defs>
		<clipPath id="SVGID_109_">
			<use xlink:href="#SVGID_108_"  overflow="visible"/>
		</clipPath>
		<path display="none" clip-path="url(#SVGID_109_)" fill="#004B8D" d="M996.126,605.374c0,11.225-2.955,18.309-4.193,20.854
			c-2.497,1.614-10.531,3.352-15.855,3.612c-0.794-0.667-1.029-2.663-0.347-3.214c5.785-1.994,16.89-7.482,16.89-23.003
			c0-11.224-6.248-16.713-13.033-16.713c-4.991,0-10.546,1.207-15.881,10.961l-7.021,12.706
			c-3.739,6.695-10.203,14.454-19.494,14.454c-10.777,0-19.502-9.896-19.502-27.294c0-4.145,0.688-8.947,1.474-12.423
			c0.467-1.749,0.682-3.61,0.682-4.684c2.728-1.206,9.063-2.412,13.836-2.412c0.683,0.541,1.021,2.669,0.337,3.354
			c-5.438,1.729-12.809,5.338-12.809,18.178c0,13.107,7.37,15.917,12.59,15.917c6.571,0,11.326-6.418,13.939-11.378l5.67-10.695
			c4.404-8.432,10.976-16.721,21.755-16.721C987.629,576.874,996.126,587.975,996.126,605.374"/>
	</g>
	<g>
		<defs>
			<rect id="SVGID_110_" x="-2245.954" y="-2356.561" width="6744.474" height="5211.636"/>
		</defs>
		<clipPath id="SVGID_111_">
			<use xlink:href="#SVGID_110_"  overflow="visible"/>
		</clipPath>
		<path display="none" clip-path="url(#SVGID_111_)" fill="#004B8D" d="M958.021,538.047c0,5.844,0.229,6.103,3.631,6.103h15.971
			c11.91,0,13.506-0.606,14.181-7.442l0.329-3.533c0.458-0.734,2.489-0.48,2.837,0.23c-0.213,6.588-0.348,10.744-0.348,15.491
			c0,5.258,0.244,9.39,0.348,14.15c-0.348,0.731-2.153,0.987-2.837,0.255l-0.329-2.079c-1.143-6.844-2.271-7.068-14.181-7.068
			h-40.798c-11.911,0-13.82,0.844-14.278,7.188l-0.226,3.169c-0.47,0.737-2.495,0.495-2.846-0.237
			c0.118-5.986,0.351-10.118,0.351-15.375c0-4.747-0.121-8.904-0.351-14.146c0.351-0.729,2.376-0.979,2.846-0.234l0.226,2.302
			c0.684,7.072,2.367,7.331,14.278,7.331h13.03c3.523,0,3.629-0.259,3.629-6.103V503.15c0-5.833-0.104-6.075-3.629-6.075h-13.03
			c-11.911,0-13.597,0.242-14.278,7.422l-0.226,2.331c-0.47,0.717-2.495,0.49-2.846-0.251c0.229-5.612,0.351-9.762,0.351-14.769
			c0-4.751-0.121-8.898-0.351-14.379c0.351-0.742,2.376-0.975,2.846-0.238l0.226,2.558c0.684,7.073,2.367,7.31,14.278,7.31h40.798
			c11.91,0,13.393-0.235,14.181-7.31l0.329-2.935c0.458-0.718,2.489-0.492,2.837,0.239c-0.213,5.855-0.348,10.004-0.348,14.755
			c0,5.007,0.135,9.406,0.348,14.769c-0.348,0.741-2.153,0.968-2.837,0.251l-0.329-2.331c-1.143-7.422-2.271-7.422-14.181-7.422
			h-15.971c-3.402,0-3.631,0.242-3.631,6.075V538.047z"/>
	</g>
	<g>
		<defs>
			<rect id="SVGID_112_" x="-2245.954" y="-2356.561" width="6744.474" height="5211.636"/>
		</defs>
		<clipPath id="SVGID_113_">
			<use xlink:href="#SVGID_112_"  overflow="visible"/>
		</clipPath>
		<path display="none" clip-path="url(#SVGID_113_)" fill="#004B8D" d="M1019.881,1017.587
			c-7.811-10.01-11.638-22.802-11.638-37.071c0-7.431,1.499-17.855,3.298-24.315c0.394-1.631,0.676-2.604,0.529-3.838
			c3.162-0.141,11.774-0.82,20.134-1.934c0.956,0.699,1.092,2.753,0.255,3.725c-9.297,2.047-19.98,8.234-19.98,28.146
			c0,21.019,13.279,38.863,41.604,38.863c28.742,0,44.607-18.271,44.607-40.783c0-17.721-11.479-25.537-19.561-28.704
			c-0.69-0.965-0.405-3.027,0.547-3.568c7.121,0.955,16.146,4.531,18.763,6.577c0.25,1.663,0.814,3.313,1.363,4.817
			c1.098,3.018,3.131,12.913,3.131,21.702c0,12.367-2.465,24.159-9.162,34.188c-7.521,10.993-19.982,19.509-37.629,19.509
			C1040.961,1034.901,1027.959,1028.025,1019.881,1017.587"/>
	</g>
	<g>
		<defs>
			<rect id="SVGID_114_" x="-2245.954" y="-2356.561" width="6744.474" height="5211.636"/>
		</defs>
		<clipPath id="SVGID_115_">
			<use xlink:href="#SVGID_114_"  overflow="visible"/>
		</clipPath>
		<path display="none" clip-path="url(#SVGID_115_)" fill="#004B8D" d="M1064.13,942.483c-22.654,0-40.004-17.854-40.004-42.37
			c0-27.484,18.933-41.287,38.878-41.287c22.896,0,39.563,18.318,39.563,41.287C1102.564,926.535,1084.549,942.483,1064.13,942.483
			 M1066.526,870.725c-18.714,0-38.873,8.684-38.873,31.422c0,12.37,8.04,28.439,32.862,28.439c16.769,0,38.539-8.574,38.539-32.01
			C1099.056,884.289,1088.852,870.725,1066.526,870.725"/>
	</g>
	<g>
		<defs>
			<rect id="SVGID_116_" x="-2245.954" y="-2356.561" width="6744.474" height="5211.636"/>
		</defs>
		<clipPath id="SVGID_117_">
			<use xlink:href="#SVGID_116_"  overflow="visible"/>
		</clipPath>
		<path display="none" clip-path="url(#SVGID_117_)" fill="#004B8D" d="M1054.39,724.542c-7.028,0-20.048,0.237-23.46,2.305
			c-1.354,0.821-2.149,2.986-2.379,6.006l-0.232,2.985c-0.779,0.713-2.268,0.491-2.72-0.225c0.226-4.578,0.349-9.027,0.349-13.714
			c0-5.039-0.123-8.284-0.326-12.607c0.553-0.964,2.019-0.857,2.697-0.25l0.232,2.892c0.229,3,1.249,5.293,2.721,6.006
			c3.732,1.683,16.772,1.683,23.118,1.683h12.818c9.862,0,20.292,1.68,27.092,8.399c5.321,5.179,8.267,14.075,8.267,22.96
			c0,8.292-1.463,16.581-6.237,22.46c-4.995,6.367-13.253,9.373-26.738,9.373h-26.749c-11.795,0-13.738,0.241-14.29,7.212
			l-0.233,3.011c-0.449,0.715-2.37,0.48-2.719-0.235c0.226-6.015,0.349-10.111,0.349-14.91c0-4.921-0.123-8.891-0.326-14.775
			c0.326-0.717,2.247-0.968,2.696-0.234l0.233,2.88c0.552,6.964,2.495,7.21,14.29,7.21h24.48c18.237,0,30.254-6.021,30.254-24.395
			c0-17.43-12.923-24.033-30.153-24.033h-13.033V724.542z"/>
	</g>
	<g>
		<defs>
			<rect id="SVGID_118_" x="-2245.954" y="-2356.561" width="6744.474" height="5211.636"/>
		</defs>
		<clipPath id="SVGID_119_">
			<use xlink:href="#SVGID_118_"  overflow="visible"/>
		</clipPath>
		<path display="none" clip-path="url(#SVGID_119_)" fill="#004B8D" d="M1040.229,584.893c-8.467,0-10.647,0.537-11.097,6.511
			l-0.414,4.257c-0.433,0.48-2.727,0.729-2.794-0.143c-0.542-7.169-0.906-16.205-0.906-28.541c0-8.382,0.57-16.342,3.2-22.312
			c2.396-5.712,6.97-10.094,14.313-10.094c8.24,0,12.483,5.568,15.675,13.534c1.133,0,1.497-1.063,1.722-2.524
			c1.155-7.17,6.86-17.796,19.107-17.796c13.285,0,22.213,11.422,22.213,35.339c0,3.853-0.349,10.356-0.349,15.929
			c0,5.84,0.233,10.36,0.349,15.284c-0.349,0.78-2.157,1.056-2.857,0.256l-0.349-2.385c-1.029-7.045-2.296-7.315-14.291-7.315
			H1040.229L1040.229,584.893z M1055.446,574.002c3.21,0,3.435-0.131,3.21-6.905c-0.449-13.534-3.872-20.852-14.633-20.852
			c-11.229,0-15.474,9.697-15.474,19.791c0,2.913,0.236,4.913,0.701,6.118c0.329,1.327,0.913,1.848,2.973,1.848H1055.446z
			 M1082.025,574.002c4.124,0,9.962-0.257,12.473-2.793c2.635-2.512,3.214-6.503,3.214-10.492c0-11.804-4.585-20.843-16.034-20.843
			c-9.041,0-19.576,5.324-19.576,26.43c0,7.179,0.696,7.698,2.975,7.698H1082.025L1082.025,574.002z"/>
	</g>
	<g>
		<defs>
			<rect id="SVGID_120_" x="-2245.954" y="-2356.561" width="6744.474" height="5211.636"/>
		</defs>
		<clipPath id="SVGID_121_">
			<use xlink:href="#SVGID_120_"  overflow="visible"/>
		</clipPath>
		<path display="none" clip-path="url(#SVGID_121_)" fill="#004B8D" d="M992.141,801.301l-0.27,3.145
			c-0.061,0.649-0.152,1.212-0.225,1.736c-0.836,4.616-4.942,6.463-8.734,8.625l-18.944,10.878c-3.157,1.88-7.421,3.901-8.016,8.185
			c-1.339-11.146-7.767-21.225-18.812-21.225c-12.777,0-18.478,12.635-18.478,25.405c0,7.647,0.215,14.627,0.215,22.411
			c0,4.311-0.215,9.417-0.215,13.706c0,2.396,0.479,2.429,1.82,2.429c1.966,0,1.42-0.839,1.556-3.359
			c0.514-9.085,2.211-8.729,9.979-8.729h49.681c7.103,0,9.233-0.622,9.896,6.852c0,0,0.124,1.136,0.189,1.787l0.327,3.171
			c0.685,0.755,2.493,0.496,2.834-0.261c-0.06-1.672-0.172-4.655-0.172-4.655c-0.128-4.135-0.45-8.279-0.45-12.399
			c0-4.144,0.322-8.127,0.45-12.228l0,0c0.026-1.445,0.095-2.978,0.155-4.656c-0.344-0.757-2.151-1.016-2.834-0.25l-0.301,3.179
			c-0.076,0.652-0.168,1.777-0.168,1.777c-0.507,7.536-2.645,7.069-9.929,7.069h-18.693c-1.098,0-4.021,0.134-4.866-0.664
			c-0.729-0.675-0.619-1.896-0.619-2.961c0-10.213,0.995-10.079,9.484-14.903l23.686-13.184c1.818-1.064,4.111-1.857,4.111-4.565
			v-11.434c0.057-1.429,0.114-2.95,0.169-4.621C994.631,800.801,992.816,800.544,992.141,801.301 M954.896,847.154
			c0,2.287,0.854,6.862-2.184,6.862H930.97c-8.5,0-9.723-0.275-9.723-10.486c0-11.942,6.079-19.332,17.25-19.332
			c4.862,0,9.354,1.744,12.382,6.177C954.408,835.464,954.896,840.985,954.896,847.154"/>
	</g>
	<g>
		<defs>
			<rect id="SVGID_122_" x="-2245.954" y="-2356.561" width="6744.474" height="5211.636"/>
		</defs>
		<clipPath id="SVGID_123_">
			<use xlink:href="#SVGID_122_"  overflow="visible"/>
		</clipPath>
		<path display="none" clip-path="url(#SVGID_123_)" fill="#004B8D" d="M1043.211,844.696c-11.878,0-13.71,0.241-14.275,8.098
			l-0.234,3.12c-0.438,0.755-2.494,0.507-2.833-0.243c0.229-6.983,0.339-11.217,0.339-16.206c0-4.873-0.109-9.113-0.329-15.344
			c0.329-0.751,2.386-0.988,2.823-0.244l0.234,2.99c0.565,7.357,2.397,7.599,14.275,7.599h39.456c7.144,0,10.09-0.362,12.229-2.607
			c1.253-1.364,2.611-3.736,2.611-13.6c0-10.597-0.448-13.218-1.471-15.213c-1.354-2.492-5.434-5.727-11.219-8.225
			c-0.563-0.738-0.118-3.116,0.673-3.116c1.239,0,12.798,3.491,15.877,5.229c-0.234,6.368-0.342,18.203-0.342,31.063v11.467
			c0,5.231,0.106,9.222,0.342,16.206c-0.342,0.75-2.143,0.998-2.828,0.243l-0.354-3.732c-0.678-7.244-2.271-7.484-14.154-7.484
			L1043.211,844.696L1043.211,844.696z"/>
	</g>
	<g>
		<defs>
			<rect id="SVGID_124_" x="-2245.954" y="-2356.561" width="6744.474" height="5211.636"/>
		</defs>
		<clipPath id="SVGID_125_">
			<use xlink:href="#SVGID_124_"  overflow="visible"/>
		</clipPath>
		<path display="none" clip-path="url(#SVGID_125_)" fill="#004B8D" d="M1043.443,510.684c-12.016,0-13.937,0.251-14.509,7.472
			l-0.234,3.05c-0.449,0.739-2.494,0.494-2.823-0.239c0.22-6.123,0.329-10.281,0.329-15.42c0-4.889-0.109-9.063-0.329-15.185
			c0.329-0.739,2.374-0.983,2.823-0.231l0.234,3.042c0.572,7.233,2.493,7.485,14.509,7.485h40.353
			c12.001,0,13.601-0.252,14.397-7.485l0.348-3.042c0.432-0.752,2.479-0.508,2.828,0.231c-0.234,6.119-0.35,10.296-0.35,15.185
			c0,5.139,0.114,9.297,0.35,15.42c-0.35,0.733-2.154,0.979-2.828,0.239l-0.348-3.05c-0.797-7.221-2.396-7.472-14.397-7.472
			H1043.443L1043.443,510.684z"/>
	</g>
	<g>
		<defs>
			<rect id="SVGID_126_" x="-2245.954" y="-2356.561" width="6744.474" height="5211.636"/>
		</defs>
		<clipPath id="SVGID_127_">
			<use xlink:href="#SVGID_126_"  overflow="visible"/>
		</clipPath>
		<path display="none" clip-path="url(#SVGID_127_)" fill="#004B8D" d="M1098.16,608.513c-0.068,0.619-0.162,1.802-0.162,1.802
			c-0.114,1.277-0.305,2.445-1.303,3.352c-1.682,1.601-6.504,1.454-8.433,1.454h-49.665c-2.164,0-6.852,0.542-8.531-1.047
			c-0.89-0.793-1.049-2.462-1.131-3.934c-0.048-0.878-0.048-0.909-0.109-1.689l-0.229-3.145c-0.451-0.747-2.49-0.508-2.82,0.24
			c0.046,1.688,0.015,3.202,0.073,4.669h0.009v13.386c0,1.45,0,2.771,1.547,3.56l56.765,27.256l-54.821,24.08
			c-1.942,0.791-3.489,0.924-3.489,3.435v13.932c-0.056,1.438-0.036,3.037-0.082,4.725c0.329,0.747,2.368,1.008,2.82,0.258
			l0.229-3.159c0.063-0.652,0.144-1.813,0.144-1.813c0.331-5.226,1.495-5.565,6.984-5.077l53.271,4.103
			c5.357,0.365,8.185,0.655,8.709,6.262c0,0,0.141,1.173,0.207,1.822l0.332,3.151c0.686,0.756,2.494,0.499,2.844-0.25
			c-0.068-1.663-0.146-4.61-0.146-4.61c-0.138-2.845-0.393-5.727-0.393-8.631c0-3.124,0.3-6.244,0.413-9.379h0.009
			c0.035-1.444,0.104-2.968,0.15-4.658c-0.331-0.736-2.146-0.997-2.828-0.247l-0.35,3.144c-0.048,0.832-0.15,1.756-0.15,1.756
			c-0.545,8.09-6.251,7.906-13.23,7.41l-49.551-3.845v-0.911l60.965-26.085c0.836-0.247,2.285-0.646,2.285-1.977
			c0-1.181-1.311-1.587-2.164-1.98l-62.539-29.37v-0.916h54.476c2.177,0,6.62-0.255,8.309,1.979c0.87,1.183,1.385,4.988,1.385,4.988
			c0.086,0.543,0.17,1.083,0.218,1.707l0.366,3.149c0.687,0.759,2.479,0.5,2.828-0.246c-0.063-1.666-0.155-4.61-0.155-4.61
			c-0.11-4.254-0.435-8.588-0.435-12.922c0-3.116,0.3-9.216,0.3-9.216c0.038-1.461,0.188-3.124,0.254-4.807
			c-0.348-0.745-2.161-1.014-2.841-0.248L1098.16,608.513z"/>
	</g>
	<g>
		<defs>
			<rect id="SVGID_128_" x="-2245.954" y="-2356.561" width="6744.474" height="5211.636"/>
		</defs>
		<clipPath id="SVGID_129_">
			<use xlink:href="#SVGID_128_"  overflow="visible"/>
		</clipPath>
		<path display="none" clip-path="url(#SVGID_129_)" fill="#004B8D" d="M1098.465,404.072l-0.338,0.435
			c-0.066,0.633-0.135,1.188-0.23,1.708c-1.084,4.894-6.99,6.823-11.195,8.618l-59.713,25.237c-0.716,0.245-2.242,0.74-2.242,1.75
			c0,1.352,1.651,1.735,2.608,2.114l59.597,24.104c2.245,0.865,7.732,3.11,9.378,4.74c1.282,1.229,1.528,2.863,1.709,4.591
			c0,0,0.112,1.363,0.188,1.994l0.315,2.979c0.674,0.75,2.479,0.496,2.828-0.27c-0.063-1.679-0.177-4.656-0.177-4.656
			c-0.038-3.292-0.457-6.586-0.457-9.895c0-2.779,0.299-5.536,0.419-8.315c0,0,0.095-2.981,0.163-4.658
			c-0.332-0.763-2.151-1.007-2.825-0.25l-0.35,3.152c-0.062,0.604-0.158,1.688-0.158,1.688c-0.313,2.91-0.839,6.526-4.019,6.526
			c-2.162,0-4.639-1.021-6.553-1.753l-8.908-3.742c-4.291-1.881-4.764-1.13-4.764-6.129v-16.976c0-6.005,0-5.126,6.057-7.748
			l9.046-3.993c1.552-0.631,4.159-1.748,5.839-1.748c2.976,0,3.174,3.263,3.436,6.307c0,0,0.092,1.023,0.158,1.894l0.216,3.027
			c0.667,0.741,2.485,0.518,2.825-0.246c-0.068-1.696-0.184-4.675-0.184-4.675c-0.131-3.552-0.398-7.127-0.398-10.561
			c0-4.367,0.299-8.743,0.419-13.11l0,0c0.038-1.444,0.088-0.229,0.149-1.893C1100.961,403.582,1099.149,403.324,1098.465,404.072
			 M1070.415,437.121v14.716c0,0.519,0.483,4.609-0.729,4.609c-0.353,0-1.076-0.247-1.437-0.381l-21.865-8.834
			c-0.598-0.267-3.605-1.147-3.605-2.182c0-0.754,3.121-1.78,3.605-2.042l20.433-8.699c0.24,0,2.166-0.893,2.653-0.893
			C1070.773,433.417,1070.415,436.354,1070.415,437.121"/>
	</g>
</g>
</svg>
