<?xml version="1.0" encoding="utf-8"?>
<!-- Generator: Adobe Illustrator 24.3.0, SVG Export Plug-In . SVG Version: 6.00 Build 0)  -->
<svg version="1.1" id="Layer_1" xmlns="http://www.w3.org/2000/svg" xmlns:xlink="http://www.w3.org/1999/xlink" x="0px" y="0px"
	 viewBox="0 0 50 50" style="enable-background:new 0 0 50 50;" xml:space="preserve">
<style type="text/css">
	.st0{fill:none;}
	.st1{fill:#606060;}
</style>
<path class="st0" d="M0,0h50v50H0V0z"/>
<path class="st1" d="M41.7,4.2h-25c-2.3,0-4.2,1.9-4.2,4.2v25c0,2.3,1.9,4.2,4.2,4.2h25c2.3,0,4.2-1.9,4.2-4.2v-25
	C45.8,6,44,4.2,41.7,4.2z M24,19.8c0,1.7-1.5,3.1-3.1,3.1h-2.1v4.2h-3.1V14.6h5.2c1.7,0,3.1,1.5,3.1,3.1V19.8z M34.4,24
	c0,1.7-1.5,3.1-3.1,3.1H26V14.6h5.2c1.7,0,3.1,1.5,3.1,3.1V24z M42.7,17.7h-3.1v2.1h3.1v3.1h-3.1v4.2h-3.1V14.6h6.2V17.7z
	 M18.8,19.8h2.1v-2.1h-2.1V19.8z M8.3,12.5H4.2v29.2c0,2.3,1.9,4.2,4.2,4.2h29.2v-4.2H8.3V12.5z M29.2,24h2.1v-6.2h-2.1V24z"/>
</svg>
